<svg width="25" height="24" viewBox="0 0 25 24" fill="none" xmlns="http://www.w3.org/2000/svg">
<g id="Frame 8612">
<path id="Vector" d="M13.6017 23.9715C12.9414 23.9715 12.3171 23.5761 12.0549 22.9268C11.7122 22.0737 12.1256 21.1026 12.9788 20.7599C15.5994 19.7056 17.7511 18.3044 19.2022 16.7063C20.3411 15.4522 21.0098 14.1245 21.0861 12.9689C21.1236 12.4001 21.0292 11.6455 20.3647 11.2695C19.4283 10.741 17.3626 10.9171 14.3772 12.9995C13.6614 13.4989 12.6833 13.3601 12.1326 12.6845C11.5818 12.0075 11.647 11.0212 12.2796 10.4219C13.7529 9.02905 14.8267 7.74442 15.4704 6.60269C15.9171 5.81055 16.1488 5.0961 16.1377 4.53702C16.1293 4.13471 15.9976 3.8198 15.7451 3.59922C15.2678 3.18304 14.2413 3.26211 13.5476 3.76847C12.7957 4.31645 12.2172 5.28061 11.7802 6.71367C10.9062 9.57425 8.66022 16.9268 8.66022 16.9268C8.43686 17.6552 7.75709 18.1768 6.99548 18.1393C6.23941 18.1033 5.61235 17.5983 5.4542 16.8603C5.3779 16.6203 4.63571 14.488 0.590388 7.99968C0.103452 7.21864 0.342065 6.19205 1.12311 5.70512C1.90415 5.21818 2.93074 5.45679 3.41767 6.23783C4.89513 8.6087 5.96195 10.4413 6.72912 11.8452C7.39501 9.6672 8.16218 7.15621 8.59363 5.74257C9.24981 3.59367 10.2278 2.06905 11.5832 1.07853C12.4697 0.43344 13.5643 0.0519376 14.6658 0.00477001C15.9129 -0.0479467 17.0741 0.337718 17.937 1.09101C18.8984 1.93032 19.4436 3.13171 19.4699 4.47321C19.4907 5.4887 19.2161 6.57633 18.6542 7.7139C19.9139 7.61263 21.057 7.8346 22.0045 8.3687C23.6498 9.29679 24.5502 11.0989 24.4128 13.1881C24.288 15.0915 23.3141 17.1363 21.6702 18.9453C19.8833 20.9139 17.3085 22.6092 14.2246 23.8494C14.0207 23.9312 13.8098 23.9701 13.6031 23.9701L13.6017 23.9715Z" fill="#EEF3F7"/>
</g>
</svg>
