<svg width="65" height="64" viewBox="0 0 65 64" fill="none" xmlns="http://www.w3.org/2000/svg">
    <g id="icon/check-circle">
        <g id="icon">
            <path fill-rule="evenodd" clip-rule="evenodd" d="M42.2674 10.0624C37.54 7.95605 32.2584 7.43422 27.2102 8.57479C22.162 9.71536 17.6178 12.4572 14.2552 16.3914C10.8926 20.3256 8.8919 25.2414 8.55138 30.4056C8.21085 35.5698 9.54879 40.7057 12.3657 45.0474C15.1825 49.3891 19.3274 52.7039 24.1821 54.4974C29.0368 56.291 34.3412 56.4672 39.3042 54.9998C44.2672 53.5324 48.623 50.5 51.7218 46.3548C54.8206 42.2097 56.4964 37.1739 56.4994 31.9984V29.5466C56.4994 28.0739 57.6933 26.88 59.166 26.88C60.6388 26.88 61.8327 28.0739 61.8327 29.5466V32C61.8291 38.3255 59.7808 44.4819 55.9934 49.5482C52.206 54.6145 46.8823 58.3208 40.8164 60.1143C34.7505 61.9078 28.2673 61.6924 22.3338 59.5003C16.4003 57.3081 11.3343 53.2567 7.8915 47.9502C4.44866 42.6437 2.8134 36.3665 3.2296 30.0547C3.6458 23.7429 6.09116 17.7347 10.201 12.9262C14.3108 8.11776 19.8649 4.76661 26.0348 3.37259C32.2048 1.97856 38.6601 2.61635 44.438 5.19083C45.7833 5.79024 46.3879 7.36671 45.7885 8.71197C45.1891 10.0572 43.6126 10.6619 42.2674 10.0624Z" fill="#0B0043"/>
            <path fill-rule="evenodd" clip-rule="evenodd" d="M61.0507 8.78007C62.0926 9.82095 62.0935 11.5094 61.0526 12.5513L34.3859 39.2446C33.8859 39.7452 33.2075 40.0265 32.5 40.0266C31.7926 40.0268 31.114 39.7458 30.6137 39.2456L22.6137 31.2456C21.5724 30.2042 21.5724 28.5157 22.6137 27.4744C23.6551 26.433 25.3436 26.433 26.385 27.4744L32.4984 33.5878L57.2795 8.78196C58.3203 7.74004 60.0088 7.7392 61.0507 8.78007Z" fill="#0B0043"/>
        </g>
    </g>
</svg>