<svg width="12" height="12" viewBox="0 0 12 12" fill="none" xmlns="http://www.w3.org/2000/svg">
<path d="M6.44444 9.09437C6.44444 9.40475 6.50222 9.70183 6.6 9.98117H2.88889C2.4 9.98117 2 9.58655 2 9.09437V2.8868C2 2.39906 2.4 2 2.88889 2H9.11111C9.60444 2 10 2.39906 10 2.8868V6.58917C9.72 6.49163 9.42222 6.43398 9.11111 6.43398V2.8868H2.88889V9.09437H6.44444ZM6.87111 6.11917L5.64889 7.6888L4.77778 6.64238L3.55556 8.20758H6.6C6.77778 7.71097 7.09778 7.28087 7.51111 6.9705L6.87111 6.11917Z" fill="#0B0043"/>
<path d="M8.77437 7.13722C8.74037 7.12435 8.70394 7.11791 8.66508 7.11791C8.62623 7.11791 8.5898 7.12435 8.5558 7.13722C8.52179 7.14988 8.49022 7.17154 8.46108 7.20219L7.4119 8.30541C7.35847 8.3616 7.33175 8.4331 7.33175 8.51993C7.33175 8.60676 7.35847 8.67826 7.4119 8.73445C7.46533 8.79063 7.5345 8.82005 7.6194 8.82271C7.7045 8.82516 7.77377 8.79829 7.8272 8.74211L8.37365 8.16751L8.37365 9.69355C8.37365 9.78038 8.40153 9.85321 8.45729 9.91205C8.51324 9.97068 8.58251 10 8.66508 10C8.74766 10 8.81683 9.97068 8.87259 9.91205C8.92855 9.85321 8.95652 9.78038 8.95652 9.69355V8.16751L9.50297 8.74211C9.5564 8.79829 9.62567 8.82516 9.71077 8.82271C9.79567 8.82005 9.86484 8.79063 9.91827 8.73445C9.9717 8.67826 9.99842 8.60676 9.99842 8.51993C9.99842 8.4331 9.9717 8.3616 9.91827 8.30541L8.86909 7.20219C8.83995 7.17154 8.80838 7.14988 8.77437 7.13722Z" fill="#0B0043"/>
</svg>
