<svg width="79" height="16" viewBox="0 0 79 16" fill="none" xmlns="http://www.w3.org/2000/svg">
<path d="M31.971 2.80013L28.1134 13.0774H26.1551L22.2827 2.80013H23.0778C23.6815 2.80013 24.2263 3.18294 24.4177 3.74245L27.1269 11.34L29.8508 3.72773C30.0569 3.16822 30.587 2.7854 31.1907 2.7854H31.9563L31.971 2.80013Z" fill="#30265F"/>
<path d="M47.5784 8.67442C47.9612 9.16031 48.1526 9.7051 48.1526 10.3235C48.1526 10.9419 48.0201 11.31 47.7404 11.737C47.4754 12.1493 47.0778 12.4879 46.5625 12.7235C46.0471 12.9591 45.4582 13.0916 44.7662 13.0916H40.6582V2.81433H44.5748C45.2815 2.81433 45.8705 2.93212 46.3858 3.1677C46.8864 3.40328 47.2692 3.72721 47.5195 4.12475C47.7698 4.5223 47.9023 4.96401 47.9023 5.46463C47.9023 5.96524 47.7404 6.55419 47.4312 6.93701C47.122 7.33456 46.695 7.62903 46.1649 7.80572C46.7244 7.90878 47.1809 8.1694 47.5637 8.65528L47.5784 8.67442ZM42.3514 7.12842H44.4422C45.0017 7.12842 45.4287 6.99591 45.7379 6.7456C46.0471 6.49529 46.2091 6.1272 46.2091 5.65603C46.2091 5.18487 46.0471 4.8315 45.7379 4.56647C45.4287 4.30144 45.0017 4.16893 44.4422 4.16893H42.3514V7.12842ZM45.9882 11.2953C46.3122 11.0155 46.4741 10.6327 46.4741 10.1468C46.4741 9.66092 46.2974 9.24866 45.9588 8.95418C45.6201 8.6597 45.149 8.51246 44.5895 8.51246H42.3662V11.7223H44.6484C45.2226 11.7223 45.6643 11.5897 45.9882 11.31V11.2953Z" fill="#30265F"/>
<path d="M56.7515 9.64637H50.5233C50.5675 10.2942 50.8178 10.8243 51.2448 11.2218C51.6718 11.6194 52.2165 11.8108 52.835 11.8108C53.7478 11.8108 54.381 11.428 54.7638 10.677H56.5895C56.3392 11.428 55.8975 12.0464 55.2497 12.5175C54.6018 13.0034 53.8067 13.239 52.8497 13.239C51.8926 13.239 51.3773 13.0623 50.7589 12.7089C50.1405 12.3556 49.6546 11.8697 49.316 11.2365C48.9626 10.6034 48.7859 9.86722 48.7859 9.02796C48.7859 8.1887 48.9626 7.45251 49.3012 6.81939C49.6399 6.18626 50.1258 5.68565 50.7294 5.347C51.3478 5.00835 52.0546 4.83167 52.8497 4.83167C53.6448 4.83167 54.3073 4.99363 54.911 5.33228C55.5147 5.67092 55.9859 6.14209 56.3098 6.74577C56.6484 7.34944 56.8104 8.05619 56.8104 8.83655C56.8104 9.08686 56.8075 9.25913 56.8016 9.37986C56.8016 9.40195 56.8001 9.42403 56.7986 9.44318C56.7986 9.46084 56.7971 9.47704 56.7957 9.49177C56.7957 9.50796 56.7942 9.52416 56.7927 9.53741C56.7927 9.5433 56.7927 9.54772 56.7927 9.5536C56.7927 9.55655 56.7927 9.56097 56.7927 9.56391C56.7927 9.57127 56.7927 9.57716 56.7913 9.58305C56.7913 9.58747 56.7913 9.59189 56.7913 9.59483C56.7913 9.60072 56.7898 9.60661 56.7883 9.61103C56.7883 9.61839 56.7854 9.62428 56.7854 9.6287C56.7854 9.63311 56.7839 9.63606 56.7839 9.63753V9.64489H56.7765H56.7633H56.7544L56.7515 9.64637ZM55.0435 8.27705C55.0435 7.65864 54.8079 7.15803 54.381 6.78994C53.9392 6.42184 53.4092 6.23043 52.7613 6.23043C52.1135 6.23043 51.6865 6.42184 51.2742 6.78994C50.862 7.15803 50.6117 7.65865 50.538 8.29177H55.0435V8.27705Z" fill="#30265F"/>
<path d="M66.0864 6.30225V4.94913H64.0987V3.68288C64.0987 3.25588 63.76 2.91724 63.3331 2.91724H62.3907V4.94913H59.5785V3.68288C59.5785 3.25588 59.2398 2.91724 58.8128 2.91724H57.8705V4.94913H56.9135V6.31845H57.8705V10.8239C57.8705 11.619 58.0766 12.1933 58.4742 12.5614C58.8717 12.9147 59.4533 13.0708 60.219 13.0708H61.5441L61.5515 11.6927H60.5208C60.1821 11.6927 59.9318 11.6338 59.7846 11.4865C59.6374 11.354 59.5637 11.1331 59.5637 10.8239V6.30372H62.376V10.8092C62.376 11.6043 62.5821 12.1785 62.9797 12.5466C63.3772 12.9 63.9662 13.0767 64.7318 13.0767L66.0864 13.0708V11.6779H65.0263C64.6876 11.6779 64.4373 11.619 64.2901 11.4718C64.1429 11.3393 64.0692 11.1184 64.0692 10.8092V6.30372" fill="#30265F"/>
<path d="M74.1552 9.64637H67.927C67.9712 10.2942 68.2215 10.8243 68.6485 11.2218C69.0755 11.6194 69.6202 11.8108 70.2386 11.8108C71.1515 11.8108 71.7846 11.428 72.1675 10.677H73.9932C73.7429 11.428 73.3012 12.0464 72.6534 12.5175C72.0055 13.0034 71.2104 13.239 70.2534 13.239C69.2963 13.239 68.781 13.0623 68.1626 12.7089C67.5442 12.3556 67.0583 11.8697 66.7196 11.2365C66.3663 10.6034 66.1896 9.86722 66.1896 9.02796C66.1896 8.1887 66.3663 7.45251 66.7049 6.81939C67.0436 6.18626 67.5294 5.68565 68.1331 5.347C68.7515 5.00835 69.4583 4.83167 70.2534 4.83167C71.0484 4.83167 71.711 4.99363 72.3147 5.33228C72.9184 5.67092 73.3895 6.14209 73.7135 6.74577C74.0521 7.34944 74.2244 8.05619 74.2141 8.83655C74.2052 9.53005 74.164 9.64637 74.164 9.64637H74.1552ZM72.4619 8.27705C72.4619 7.65864 72.2264 7.15803 71.7994 6.78994C71.3576 6.42184 70.8276 6.23043 70.1797 6.23043C69.5319 6.23043 69.1049 6.42184 68.6926 6.78994C68.2804 7.15803 68.0301 7.65865 67.9564 8.29177H72.4619V8.27705Z" fill="#30265F"/>
<path d="M77.4823 5.15628C77.8945 4.9207 78.3804 4.84119 78.9399 4.84119V6.55504H78.5129C77.8503 6.55504 77.3497 6.717 77.0111 7.05565C76.6724 7.3943 76.4958 7.96853 76.4958 8.80779L76.4928 13.0718H74.7996L74.8025 4.93542H75.7301C76.1571 4.93542 76.4958 5.27407 76.4958 5.70106V6.12805C76.7461 5.71578 77.07 5.39186 77.4823 5.15628Z" fill="#30265F"/>
<path d="M39.6422 9.08582C39.6128 10.7202 38.6263 12.1926 37.1392 12.8551C36.5944 13.0907 36.0201 13.2232 35.4312 13.2232C33.7527 13.2232 32.2361 12.2367 31.5588 10.7202C31.1024 9.6895 31.0729 8.54104 31.4705 7.48092C31.868 6.4208 32.6631 5.59626 33.6938 5.13982C34.2386 4.88952 34.8128 4.77173 35.4165 4.77173C36.8005 4.77173 38.0962 5.44903 38.8766 6.56804C39.0238 6.77417 39.1563 7.00975 39.2741 7.27478C39.3772 7.49564 39.4508 7.7165 39.5097 7.95208L35.7257 9.6306L35.1514 8.3349L37.3011 7.37785L37.4027 7.32926C37.36 7.27773 37.3203 7.23356 37.2864 7.20116C36.8005 6.68583 36.1232 6.37369 35.4165 6.40608C35.0572 6.42669 34.6552 6.49737 34.3563 6.62694C33.7217 6.90374 33.2373 7.42202 32.987 8.06987C32.7367 8.71772 32.7514 9.42447 33.0312 10.0576C33.4435 10.9999 34.3858 11.6036 35.4165 11.6036C35.7728 11.5992 36.1453 11.5241 36.4619 11.3827C37.1127 11.0927 37.6103 10.5435 37.8459 9.89563L39.6275 9.10054L39.6422 9.08582Z" fill="#30265F"/>
<path d="M7.80892 15.2562C7.57334 14.682 7.85309 14.0342 8.42732 13.8133C10.1795 13.1066 11.6077 12.179 12.5795 11.1188C13.3451 10.2796 13.7868 9.39615 13.831 8.63051C13.8604 8.24769 13.7868 7.74708 13.3451 7.49677C12.7267 7.1434 11.3426 7.26119 9.35493 8.64523C8.88376 8.98388 8.22119 8.88082 7.85309 8.4391C7.485 7.98266 7.52917 7.33481 7.95616 6.93727C8.94266 6.00966 9.6494 5.15568 10.0764 4.39004C10.3709 3.85998 10.5328 3.38882 10.5181 3.02072C10.5181 2.75569 10.4298 2.54956 10.2531 2.40232C9.92916 2.12257 9.25186 2.18146 8.79542 2.52011C8.29481 2.88821 7.91199 3.52133 7.61751 4.47838C7.02856 6.37776 5.54145 11.2808 5.54145 11.2808C5.39421 11.7667 4.93777 12.1201 4.43716 12.0906C3.93655 12.0612 3.50956 11.7372 3.40649 11.2366C3.36232 11.0747 2.86171 9.66118 0.167239 5.33237C-0.156686 4.81703 0.00527602 4.12501 0.520611 3.80108C1.03595 3.47716 1.72797 3.63912 2.05189 4.15446C3.03839 5.72991 3.74514 6.95199 4.26047 7.89432C4.70219 6.43666 5.21752 4.77286 5.49728 3.83053C5.93899 2.40232 6.58684 1.38637 7.485 0.723797C8.07395 0.296805 8.81015 0.0465007 9.53162 0.00232914C10.3562 -0.0271186 11.1365 0.223186 11.7107 0.723797C12.3586 1.2833 12.712 2.07839 12.7267 2.97655C12.7267 3.65385 12.5647 4.37531 12.1819 5.14095C13.0212 5.06734 13.7868 5.21457 14.4199 5.58267C15.5095 6.20107 16.1132 7.40843 16.0248 8.79247C15.9365 10.0587 15.2886 11.428 14.1991 12.6354C13.0064 13.9458 11.2985 15.0796 9.23714 15.9041C9.05898 15.9733 8.88376 16.0027 8.71002 15.9998C8.26831 15.9998 7.98561 15.6832 7.80892 15.2562Z" fill="#30265F"/>
</svg>
