<svg xmlns="http://www.w3.org/2000/svg" width="86" height="17" viewBox="0 0 86 17" fill="none">
    <g clip-path="url(#clip0_3505_23366)">
        <path
            d="M15.3079 0.695312L9.51387 16.1263H6.58253L0.765625 0.695312H1.96334C2.86925 0.695312 3.67599 1.26556 3.98114 2.11807L8.04725 13.5287L12.1363 2.11426C12.4414 1.26365 13.2481 0.695312 14.1521 0.695312H15.3079Z"
            fill="#EEF3F7" />
        <path
            d="M38.7346 9.51031C39.3125 10.235 39.6005 11.057 39.6005 11.9744C39.6005 12.7582 39.3964 13.4658 38.9902 14.0952C38.5821 14.7246 37.9946 15.2204 37.2261 15.5828C36.4556 15.9451 35.5611 16.1263 34.5388 16.1263H28.3672V0.695312H34.2508C35.3017 0.695312 36.2038 0.872681 36.959 1.22742C37.7143 1.58215 38.2826 2.06086 38.6679 2.65971C39.0531 3.25857 39.2458 3.92989 39.2458 4.66988C39.2458 5.55863 39.0093 6.29862 38.5344 6.88984C38.0614 7.48107 37.4244 7.91781 36.6253 8.20008C37.4549 8.34884 38.1568 8.78558 38.7346 9.51031ZM30.8961 7.17783H34.0258C34.8554 7.17783 35.502 6.98902 35.9692 6.61139C36.4346 6.23377 36.6692 5.69022 36.6692 4.97885C36.6692 4.26747 36.4365 3.73918 35.9692 3.3463C35.5039 2.95342 34.8554 2.75888 34.0258 2.75888H30.8961V7.17783ZM36.3354 13.4391C36.8236 13.0253 37.0678 12.4474 37.0678 11.7074C37.0678 10.9674 36.8084 10.3533 36.2915 9.90891C35.7728 9.46454 35.0843 9.24331 34.2261 9.24331H30.8961V14.0609H34.3157C35.1739 14.0609 35.8472 13.853 36.3354 13.4391Z"
            fill="#EEF3F7" />
        <path
            d="M52.4968 10.9521H43.1497C43.2241 11.9286 43.5865 12.7144 44.2368 13.3056C44.8872 13.8987 45.6863 14.1944 46.6341 14.1944C47.9959 14.1944 48.9571 13.6241 49.5197 12.4855H52.2508C51.8808 13.6108 51.2114 14.5319 50.2406 15.249C49.2718 15.968 48.0683 16.3266 46.6322 16.3266C45.4631 16.3266 44.4161 16.0634 43.4911 15.5389C42.5661 15.0144 41.8414 14.2725 41.315 13.319C40.7886 12.3635 40.5273 11.2573 40.5273 10.0005C40.5273 8.74363 40.7829 7.63555 41.294 6.68196C41.8052 5.72837 42.5223 4.99029 43.4472 4.47344C44.3722 3.95469 45.4345 3.69531 46.6341 3.69531C47.8338 3.69531 48.8179 3.94706 49.72 4.45056C50.6221 4.95405 51.3258 5.65971 51.8293 6.57134C52.3328 7.48107 52.5846 8.52811 52.5846 9.71247C52.5846 10.1721 52.554 10.586 52.4949 10.956L52.4968 10.9521ZM49.9431 8.90955C49.9278 7.97694 49.596 7.22932 48.9437 6.6667C48.2915 6.10408 47.4847 5.82373 46.5235 5.82373C45.65 5.82373 44.9024 6.10218 44.2807 6.65717C43.6589 7.21216 43.2889 7.96359 43.1707 8.91146H49.9431V8.90955Z"
            fill="#EEF3F7" />
        <path
            d="M66.5126 5.95709V3.89161H63.5374V1.99587C63.5374 1.36459 63.0244 0.851562 62.3931 0.851562H60.9837V3.89352H56.7631V1.99587C56.7631 1.36459 56.25 0.851562 55.6188 0.851562H54.2094V3.89352H52.7656V5.959H54.2094V12.7314C54.2094 13.931 54.5126 14.7969 55.1191 15.329C55.7256 15.8611 56.5991 16.1281 57.7396 16.1281H59.7383V14.0188H58.1839C57.6652 14.0188 57.299 13.9196 57.0854 13.7193C56.8699 13.5191 56.7631 13.191 56.7631 12.7314V5.95709H60.9837V12.7295C60.9837 13.9291 61.2869 14.795 61.8934 15.3271C62.4999 15.8592 63.3734 16.1262 64.5139 16.1262H66.5126V14.0168H64.9582C64.4395 14.0168 64.0733 13.9177 63.8597 13.7174C63.6442 13.5172 63.5374 13.1891 63.5374 12.7295V5.95709H66.5126Z"
            fill="#EEF3F7" />
        <path
            d="M78.6218 10.9521H69.2747C69.3491 11.9286 69.7115 12.7144 70.3618 13.3056C71.0122 13.8987 71.8132 14.1944 72.7591 14.1944C74.1209 14.1944 75.0821 13.6241 75.6447 12.4855H78.3758C78.0058 13.6108 77.3364 14.5319 76.3656 15.249C75.3968 15.968 74.1933 16.3266 72.7572 16.3266C71.5881 16.3266 70.5411 16.0634 69.6161 15.5389C68.6911 15.0144 67.9664 14.2725 67.44 13.319C66.9136 12.3635 66.6523 11.2573 66.6523 10.0005C66.6523 8.74363 66.9079 7.63555 67.419 6.68196C67.9302 5.72646 68.6473 4.99029 69.5722 4.47344C70.4972 3.95469 71.5595 3.69531 72.7591 3.69531C73.9588 3.69531 74.9429 3.94706 75.845 4.45056C76.7471 4.95405 77.4508 5.65971 77.9543 6.57134C78.4578 7.48107 78.7096 8.52811 78.7096 9.71247C78.7096 10.1721 78.679 10.586 78.6199 10.956L78.6218 10.9521ZM76.0681 8.90955C76.0528 7.97694 75.721 7.22932 75.0687 6.6667C74.4165 6.10408 73.6117 5.82373 72.6485 5.82373C71.775 5.82373 71.0274 6.10218 70.4057 6.65717C69.7839 7.21216 69.4139 7.96359 69.2957 8.91146H76.0681V8.90955Z"
            fill="#EEF3F7" />
        <path
            d="M83.6144 4.21397C84.2285 3.86687 84.957 3.69141 85.8019 3.69141V6.31188H85.1573C84.1655 6.31188 83.4141 6.56362 82.903 7.06712C82.3919 7.57062 82.1363 8.44411 82.1363 9.68759V16.1262H79.6055V3.89166H80.992C81.6233 3.89166 82.1363 4.40469 82.1363 5.03597V5.66725C82.5063 5.04551 82.9983 4.56108 83.6125 4.21397H83.6144Z"
            fill="#EEF3F7" />
        <path
            d="M26.8228 10.1167C26.7694 12.5712 25.3046 14.7759 23.0561 15.7791C22.2379 16.1414 21.3701 16.3264 20.4833 16.3264C17.9734 16.3264 15.6982 14.8465 14.6797 12.5598C13.9855 11.0092 13.9436 9.28703 14.55 7.70407C15.1565 6.12111 16.3485 4.86999 17.8933 4.1815C18.7172 3.81341 19.5831 3.62842 20.4718 3.62842C22.5411 3.62842 24.4865 4.63541 25.6689 6.32708C25.8902 6.64177 26.0961 6.99841 26.2754 7.38938C26.4223 7.71932 26.5405 8.05499 26.6282 8.4021L20.9448 10.9272L20.0828 8.99332L23.3078 7.55721L23.4814 7.48093L23.3517 7.3398L23.2868 7.26923C22.5602 6.50445 21.5361 6.07152 20.4738 6.07152C19.9264 6.07152 19.3905 6.18595 18.887 6.40718C17.9334 6.83058 17.201 7.59917 16.8329 8.57374C16.4534 9.5445 16.4801 10.6049 16.9092 11.5585C17.5386 12.9736 18.9404 13.8833 20.4852 13.8833C21.0326 13.8833 21.5628 13.7689 22.0624 13.5477C23.037 13.1147 23.7903 12.2966 24.1432 11.3048L26.8247 10.1128L26.8228 10.1167Z"
            fill="#EEF3F7" />
    </g>
    <defs>
        <clipPath id="clip0_3505_23366">
            <rect width="85.0375" height="15.6313" fill="white"
                transform="translate(0.765625 0.695312)" />
        </clipPath>
    </defs>
</svg>