  <svg
    width="208"
    height="200"
    viewBox="0 0 208 200"
    fill="none"
    xmlns="http://www.w3.org/2000/svg"
  >
    <path
      d="M101.228 0.454283C125.609 3.13628 157.593 28.1874 177.599 44.9502C197.78 62.0116 208.401 81.6493 207.236 101.059C206.059 120.655 193.664 137.834 176.527 154.192C159.232 170.247 137.194 185.476 113.119 194.112C66.3445 212.613 19.0781 186.875 3.10604 125.86C-12.9304 65.2026 55.7725 -4.5459 101.228 0.454283Z"
      fill="#E6F0FA"
    />
    <path
      d="M115.134 68.9209C96.4859 58.2941 72.6624 64.8166 62.0358 83.4588C51.4093 102.107 57.9374 125.919 76.5852 136.552C95.2271 147.179 119.039 140.662 129.671 122.014C140.298 103.366 133.781 79.5536 115.134 68.9209Z"
      fill="#6AA300"
    />
    <path
      d="M116.598 69.8047C124.853 81.7371 126.088 97.8442 118.442 111.264C107.809 129.912 83.9977 136.429 65.3558 125.802C64.8581 125.521 64.3722 125.222 63.8862 124.912C67.0947 129.555 71.3629 133.565 76.5854 136.54C95.2274 147.167 119.039 140.65 129.672 122.002C140.011 103.863 134.11 80.8179 116.598 69.8047Z"
      fill="#548800"
    />
    <path
      d="M122.962 130.363C122.505 130.117 121.814 130 121.715 130.146C121.621 130.298 120.848 130.222 120.596 130.193C120.35 130.158 119.589 130.556 119.39 130.714C119.185 130.878 118.717 130.527 118.489 130.503C118.254 130.48 117.698 130.568 117.593 130.755C117.487 130.937 117.388 130.861 117.388 130.58C117.388 130.58 117.388 130.58 116.996 130.697C116.533 130.849 116.533 130.849 116.533 130.849C116.071 131.276 115.145 131.616 114.923 131.569C114.712 131.51 114.15 132.406 113.945 132.769C113.734 133.138 113.629 133.677 113.688 133.958C113.688 133.958 113.688 133.958 113.559 134.274C113.29 134.889 113.289 134.889 113.289 134.889C112.932 135.287 113.044 135.878 113.102 136.013C113.161 136.142 114.115 136.399 114.484 136.499C114.636 136.546 114.841 136.569 115.04 136.575C117.968 134.924 120.684 132.886 123.132 130.492C123.079 130.439 123.02 130.398 122.962 130.363Z"
      fill="#80C6FF"
    />
    <path
      d="M66.6377 99.4026C66.5323 99.467 66.7841 100.433 66.9012 100.779C67.0124 101.124 66.9304 102.424 66.8485 102.81C66.7606 103.208 66.3859 103.712 66.2805 103.829C66.181 103.934 66.1634 104.297 66.1225 104.432C66.0756 104.555 65.2794 105.422 65.1388 105.867C64.9983 106.317 63.7278 107.248 63.3882 107.881C63.0545 108.513 62.873 109.473 63.0194 109.479C63.1716 109.479 62.8496 110.129 62.6213 110.094C62.3929 110.059 61.8894 110.428 61.9831 110.515C62.0709 110.603 61.6786 111.025 61.5966 111.236C61.5147 111.446 60.9468 112.834 60.8004 113.168C60.654 113.513 60.6657 114.549 60.613 114.871C60.5545 115.193 60.3671 115.75 60.3671 115.849C60.3554 115.943 60.3554 116.048 60.3613 116.054C60.3671 116.06 60.6599 116.405 60.7184 116.552C60.7887 116.698 61.5381 117.055 61.8016 117.149C62.0592 117.225 61.9714 116.891 61.9362 116.71C61.8952 116.534 62.1294 115.908 62.0416 115.779C61.9421 115.656 62.3109 114.895 62.5041 114.795C62.7091 114.696 63.2887 114.69 63.4117 114.579C63.5346 114.473 63.921 113.847 63.8449 113.689C63.7805 113.537 64.366 112.851 64.5007 112.424C64.6236 111.985 65.578 112.073 65.7946 111.792C66.0112 111.511 67.0124 111.651 67.2817 111.604C67.551 111.558 68.2009 110.779 68.2244 110.539C68.2478 110.305 68.7162 110.375 68.8918 110.474C69.0616 110.574 69.3309 110.562 69.3953 110.597C69.4656 110.627 69.893 110.363 70.0511 110.34C70.215 110.316 70.9644 109.532 71.2513 109.491C71.5441 109.456 72.0242 108.999 72.112 108.835C72.2115 108.671 72.797 108.367 72.9785 108.279C73.16 108.185 74.1144 108.273 74.2842 108.296C74.4481 108.32 75.3439 107.219 75.66 106.809C75.9586 106.399 76.5207 105.943 76.6144 105.808C76.7081 105.673 77.0242 105.691 77.0945 105.667C77.1706 105.65 77.6683 105.193 77.8556 105.135C78.043 105.07 78.7748 104.777 78.8451 104.66C78.9154 104.549 79.1613 104.28 79.372 104.069C79.372 104.069 79.372 104.069 79.5418 103.77C79.817 103.302 79.817 103.302 79.817 103.302C79.8931 102.851 79.7409 102.166 79.5887 102.207C79.4247 102.242 79.1905 101.551 79.0032 101.323C78.8217 101.101 78.2655 100.691 78.1074 100.603C77.9552 100.515 77.68 99.789 77.4868 99.5841C77.2994 99.3792 76.7608 98.9225 76.6964 98.7878C76.632 98.659 76.9832 97.6812 76.6729 97.1192C76.3568 96.5571 75.8942 95.3919 75.9411 95.0933C75.9879 94.7889 75.3614 93.7408 75.1682 93.4188C74.975 93.0968 74.5593 92.8216 74.4774 92.8509C74.3895 92.8743 74.3368 92.1307 74.2373 91.8731C74.1436 91.6155 73.6635 91.1705 73.5523 91.2935C73.4528 91.4223 73.1307 91.1412 73.1073 90.9714C73.0956 90.8133 72.7092 90.8075 72.5511 90.7782C72.3989 90.7431 71.5382 91.1822 71.2279 91.2349C70.9235 91.2817 70.8473 90.8133 70.7478 90.6728C70.6483 90.5382 70.0218 90.3976 69.8169 90.4152C69.612 90.4386 69.7583 89.3964 70.0569 89.051C70.3555 88.7114 70.3731 87.6868 70.0569 87.4819C69.7349 87.2769 70.0979 86.4045 70.3321 86.1411C70.5722 85.8776 70.0218 85.3155 69.8637 85.2043C69.7115 85.0813 69.0616 85.2687 68.8742 85.4268C68.6869 85.5907 67.4632 84.2558 68.1541 83.4653C68.8391 82.6691 70.0745 82.148 70.3204 82.1304C70.5546 82.1246 71.5499 82.6164 71.6963 82.8564C71.831 83.1023 72.0944 83.0848 72.1705 83.0555C72.2408 83.0204 72.9844 83.5297 73.16 83.7581C73.3415 83.9864 73.16 85.0872 73.3357 85.3389C73.5172 85.5907 74.0031 84.9408 74.1378 84.7944C74.2783 84.6422 74.3661 84.1211 74.372 83.9747C74.3837 83.8166 75.4551 82.9794 75.9294 82.9969C76.3978 83.0145 77.1413 82.6281 77.1706 82.4993C77.194 82.3705 77.5687 82.4758 77.6858 82.4758C77.8029 82.4817 78.2011 81.5332 78.4587 81.4219C78.7163 81.3107 79.6355 81.299 79.9048 81.3341C80.1741 81.3634 80.6542 80.895 80.6367 80.7545C80.6133 80.6081 81.5618 80.4266 81.954 80.5144C82.3522 80.6023 82.4693 81.0589 82.3639 81.0589C82.4458 81.0648 83.0489 81.0824 83.3182 81.0648C83.6285 81.0472 83.6344 80.5027 83.5583 80.2978C83.4822 80.0929 83.851 79.6596 84.0501 79.7181C84.2491 79.7767 84.6473 79.443 84.6473 79.3317C84.6531 79.2088 85.344 79.8177 85.7714 79.765C86.1871 79.7123 85.5548 80.3446 85.1625 80.5261C84.7761 80.7018 84.9869 81.2053 85.1625 81.2287C85.3323 81.2463 85.3557 81.5566 85.3381 81.6503C85.3206 81.7498 85.7129 81.7498 85.8651 81.943C86.0115 82.148 86.3276 81.8552 86.4447 81.6971C86.5501 81.5449 86.2574 80.9243 86.2983 80.6842C86.3335 80.4442 86.9541 79.2849 87.0712 79.0448C87.1941 78.8048 87.1005 78.2427 86.9541 78.2486C86.8194 78.2544 87.0009 77.464 86.9248 77.2239C86.8428 76.9839 86.9834 76.6384 87.0536 76.533C87.1239 76.4218 86.8955 75.5201 86.919 75.1688C86.9365 74.8234 86.7199 74.7707 86.6379 74.8819C86.5501 74.999 86.152 74.8 85.9997 74.6887C85.8534 74.5833 86.07 73.8866 86.1988 73.6582C86.3335 73.4182 85.6309 72.9674 85.625 72.7097C85.6133 72.458 85.0922 72.2706 85.0864 72.1008C85.0864 71.9252 84.7351 71.5622 84.6239 71.568C84.5068 71.5622 83.5993 73.2718 83.2597 73.6817C82.9201 74.0857 82.3112 74.2672 82.1707 74.1793C82.036 74.0915 81.9306 74.4721 82.0477 74.4955C82.159 74.5248 81.4915 74.8351 81.2397 75.1571C81.0055 75.4674 80.8533 74.9112 80.9763 74.5716C81.0992 74.2262 80.9938 73.6055 80.8709 73.6817C80.7479 73.7519 80.6425 73.3831 80.502 73.3889C80.3615 73.4006 79.9692 72.5868 79.7936 72.2882C79.6062 72.0071 79.9165 71.123 79.8112 70.965C79.6999 70.8069 79.8814 70.7834 79.9458 70.6605C80.0102 70.5317 80.7831 70.3619 81.0465 70.2624C81.2983 70.1628 82.276 69.753 82.5864 69.7295C82.8967 69.7003 83.3065 69.3783 83.3182 69.2787C83.3182 69.185 84.4833 69.4368 84.8054 69.4953C85.1274 69.5598 85.7831 68.945 85.9412 68.7518C86.0934 68.5586 86.1227 68.0316 86.0349 67.9145C85.9353 67.7916 86.4447 68.055 86.5618 68.2365C86.6906 68.4122 87.3229 68.4649 87.4693 68.6932C87.604 68.9099 87.8733 69.3841 88.0607 69.7413C88.0607 69.7413 88.0607 69.7413 87.6918 70.2506C87.0361 71.1055 87.0361 71.1055 87.0361 71.1055C86.0759 70.9884 85.5372 71.4158 85.8124 71.5622C86.0876 71.7085 87.0244 72.9674 87.2293 73.4182C87.44 73.869 87.8967 73.3187 88.1192 73.1664C88.3358 73.0201 88.6462 72.4111 88.6286 72.2472C88.6169 72.0833 89.0794 72.4053 89.1438 72.6102C89.2024 72.8268 89.5127 72.6453 89.659 72.657C89.7878 72.6688 90.1333 72.1945 90.2562 72.1184C90.3675 72.054 90.1333 71.7788 90.1977 71.6441C90.2562 71.5095 89.8464 70.9474 89.7176 70.76C89.5771 70.5668 89.7469 70.157 89.8815 70.1394C90.0103 70.1277 90.1391 69.548 90.1391 69.3314C90.145 69.1265 89.6356 68.6581 89.4483 68.5468C89.2551 68.4356 89.3019 67.8677 89.2375 67.7389C89.1555 67.6159 88.4529 67.1007 88.2363 67.048C88.0255 67.0011 88.0197 66.2224 87.604 66.2224C87.1883 66.2224 87.0829 65.6486 86.9892 65.4905C86.8897 65.3325 85.707 65.7072 85.4025 66.2575C85.0922 66.8138 85.063 67.5047 85.1742 67.5925C85.2854 67.6744 84.8522 68.0902 84.6473 68.1604C84.4424 68.2307 84.296 67.7623 84.4833 67.7037C84.6707 67.6452 84.5653 66.8196 84.5536 66.5035C84.5477 66.2693 84.2433 65.9062 84.0501 65.6545C83.8042 65.7306 83.57 65.8126 83.3241 65.9004C83.2597 66.1346 83.1777 66.4332 83.0021 66.5913C82.6976 66.8723 82.3814 66.7552 82.4517 66.603C82.481 66.5327 82.3756 66.4039 82.2175 66.2868C75.3205 68.863 69.126 73.4006 64.5416 79.6245C64.5943 79.9055 64.6529 80.2334 64.6119 80.4149C64.5416 80.7662 64.9456 81.2522 65.01 81.3751C65.0686 81.4805 65.455 80.8774 65.4901 80.6725C65.5136 80.4734 65.7595 80.4793 65.6892 80.6023C65.6189 80.7252 65.7829 81.5508 65.8356 81.8435C65.8824 82.1304 65.3145 83.518 65.3145 83.881C65.3086 84.244 66.4738 85.6727 66.8953 86.0415C67.3169 86.4104 67.6213 87.2945 67.6213 87.5053C67.6213 87.7102 68.2185 88.1552 68.318 88.2957C68.4176 88.4362 68.4995 89.051 68.5874 89.2149C68.6693 89.3847 68.6283 89.7009 68.5874 89.7712C68.5581 89.8356 69.208 90.6318 69.2899 90.9773C69.3661 91.3169 69.7349 91.4515 69.852 91.3871C69.9691 91.3286 69.8227 91.9668 69.811 92.201C69.7876 92.4352 69.5417 92.9094 69.4363 92.9446C69.3309 92.9797 68.7279 93.7525 68.4937 93.8462C68.2478 93.9282 67.2583 94.9879 67.1763 95.269C67.1002 95.55 67.2115 96.276 67.3461 96.4517C67.4691 96.6215 67.2466 96.844 67.1061 96.7854C66.9597 96.7269 66.3567 97.933 66.5733 98.2902C66.7724 98.6707 66.7372 99.3441 66.6377 99.4026Z"
      fill="#80C6FF"
    />
    <path
      d="M82.3598 81.0762C82.3449 81.0836 82.3449 81.0762 82.3598 81.0762V81.0762Z"
      fill="#80C6FF"
    />
    <path
      d="M88.184 65.5018C88.629 65.6598 89.3608 65.935 89.4721 65.8413C89.5599 65.7711 89.7238 65.4959 89.7004 65.3554C89.759 65.3905 89.8351 65.4432 89.8936 65.4725C90.0459 65.5603 90.7836 64.8636 91.0587 64.7582C91.3281 64.6528 92.4229 64.887 92.7215 64.8811C93.0143 64.8753 93.7637 64.6821 93.9862 64.7348C94.2028 64.7874 94.718 64.5064 94.7239 64.3952C94.7297 64.2898 95.6314 64.2605 95.9476 64.3015C96.2637 64.3366 96.5623 64.12 96.4745 64.0439C96.4159 64.0029 94.5834 63.9385 92.8796 63.9385C90.8304 64.0966 88.8046 64.4303 86.8081 64.9104C87.2179 65.1095 87.8913 65.3964 88.184 65.5018Z"
      fill="#80C6FF"
    />
    <path
      d="M88.6404 121.528C89.2259 121.516 90.5784 120.843 90.9472 120.761C91.3219 120.667 91.966 119.947 92.1182 119.795C92.2704 119.643 92.8032 119.561 92.9613 119.602C93.1252 119.637 94.5948 118.062 95.2096 117.886C95.8243 117.711 97.3759 116.042 97.7213 115.316C98.0667 114.596 99.1148 113.437 99.3899 113.173C99.6651 112.91 100.467 112.623 100.684 112.593C100.9 112.558 102.61 111.709 103.19 111.393C103.769 111.065 104.677 110.146 104.759 109.865C104.847 109.578 104.302 109.028 104.109 109.086C103.922 109.145 103.254 108.899 103.061 108.788C102.862 108.676 103.008 107.382 102.856 107.008C102.698 106.639 103.137 105.304 103.102 104.982C103.073 104.666 102.95 103.84 102.885 103.629C102.821 103.419 103.155 102.775 103.231 102.576C103.295 102.388 103.43 102.845 103.342 103.126C103.248 103.407 103.383 104.836 103.412 105.304C103.442 105.772 103.401 107.201 103.354 107.623C103.313 108.05 104.706 108.618 105.239 108.659C105.772 108.7 106.498 108.665 106.58 108.559C106.662 108.46 107.511 108.524 107.786 108.483C108.055 108.442 108.664 107.763 108.857 107.699C109.056 107.64 109.261 106.768 109.255 106.469C109.238 106.165 108.664 105.603 108.483 105.62C108.289 105.626 108.336 104.877 108.354 104.596C108.377 104.32 108.008 103.764 108.038 103.583C108.067 103.401 108.395 103.278 108.506 103.278C108.611 103.272 109.179 104.478 109.273 104.976C109.355 105.462 109.32 106.252 109.314 106.387C109.302 106.522 110.022 107.002 110.262 106.973C110.502 106.949 110.678 107.09 110.649 107.289C110.649 107.289 110.649 107.289 110.906 107.382C111.808 107.722 111.808 107.722 111.808 107.722C111.949 108.366 111.861 108.794 111.802 108.881C111.75 108.952 111.802 109.443 111.937 109.566C112.077 109.701 111.884 110.304 111.855 110.462C111.832 110.626 111.837 111.703 111.744 112.09C111.65 112.488 111.668 113.372 111.668 113.606C111.668 113.841 111.457 114.403 111.369 114.543C111.293 114.678 111.439 115.129 111.627 115.222C111.82 115.31 112.874 114.35 113.213 113.963C113.547 113.571 114.062 113.384 114.144 113.431C114.232 113.483 114.443 113.278 114.496 113.185C114.548 113.091 115.017 113.372 115.134 113.278C115.239 113.185 115.83 112.476 116.065 112.459C116.311 112.435 117.136 112.389 117.394 112.435C117.645 112.482 117.921 113.255 117.915 113.542C117.915 113.829 117.704 114.444 117.616 114.508C117.511 114.572 117.569 115.234 117.868 115.398C118.161 115.55 118.038 115.978 117.967 116.112C117.903 116.259 118.055 116.856 118.044 117.072C118.02 117.289 117.727 117.746 117.622 117.822C117.505 117.898 117.189 118.542 117.148 118.741C117.101 118.946 117.476 120.345 117.651 120.814C117.833 121.276 118.459 120.533 118.436 120.181C118.412 119.824 118.172 118.899 118.143 118.642C118.114 118.384 118.5 117.646 118.658 117.482C118.822 117.307 119.103 117.88 119.209 118.132C119.314 118.384 119.378 118.852 119.326 118.964C119.267 119.075 120.836 119.087 121.287 118.39C121.75 117.687 122.604 117.102 122.751 116.932C122.903 116.762 122.897 116.417 122.792 116.346C122.704 116.276 123.29 115.896 123.623 116.095C123.945 116.294 125.251 115.855 125.655 115.609C126.041 115.357 126.592 115.293 126.656 115.269C126.732 115.252 127.476 114.567 127.716 114.245C127.962 113.928 128.032 113.249 128.102 113.05C128.178 112.863 128.126 112.277 128.12 112.102C128.126 111.932 128.331 111.411 128.43 111.346C128.524 111.282 128.881 111.352 128.963 111.294C129.039 111.229 129.595 111.059 129.654 110.878C129.718 110.708 129.753 111.212 129.829 111.434C129.906 111.657 129.589 112.617 129.73 112.822C129.87 113.033 131.229 112.47 131.51 111.762C131.785 111.054 132.581 110.415 132.815 110.439C133.003 110.462 133.664 110.152 134.127 109.918C135.251 103.916 134.929 97.792 133.284 92.0424C133.237 92.019 133.184 91.9956 133.155 91.9605C132.897 91.738 132.897 91.738 132.897 91.738C132.476 91.3574 132.488 90.6841 132.646 90.608C132.692 90.5846 132.739 90.4967 132.769 90.3796C132.634 89.9815 132.493 89.5892 132.347 89.1911C132.119 89.0505 131.873 88.9217 131.738 88.8339C131.445 88.6583 130.942 88.0903 130.889 87.9147C130.842 87.739 130.339 87.7332 130.204 87.9322C130.058 88.1313 129.343 87.8503 129.191 87.9732C129.027 88.0903 128.688 87.9088 128.67 87.78C128.653 87.6512 127.868 87.6102 127.534 87.4814C127.206 87.3409 126.492 87.2706 126.322 87.2531C126.153 87.2414 125.649 87.3643 125.526 87.4756C125.397 87.5751 124.882 87.5692 124.724 87.5517C124.572 87.5283 124.273 88.1137 124.379 88.2835C124.501 88.4592 124.121 88.0493 123.98 87.8269C123.828 87.6044 123.407 87.821 123.278 87.903C123.137 87.9849 123.061 87.6863 123.167 87.5224C123.272 87.3526 122.833 86.9252 122.692 87.0189C122.54 87.1184 122.294 86.732 122.189 86.5739C122.083 86.41 121.071 86.7144 120.702 86.8139C120.333 86.9193 119.092 86.4626 118.933 86.2519C118.781 86.0469 118.231 86.5153 118.389 86.6559C118.547 86.7905 117.95 86.3631 117.575 86.1992C117.206 86.0294 115.953 85.8596 115.614 85.9006C115.262 85.9474 115.198 85.6078 115.274 85.4732C115.35 85.3385 115.034 84.9813 114.94 84.8759C114.847 84.7706 114.168 85.4439 113.875 85.479C113.582 85.52 113.793 84.6008 113.383 84.2026C112.985 83.7986 112.499 82.9262 112.317 82.7447C112.142 82.5691 111.966 81.8782 111.925 81.685C111.884 81.4976 111.334 81.0409 111.135 80.9238C110.947 80.8184 110.11 80.8184 109.858 80.8653C109.607 80.9063 109.367 80.7306 109.255 80.7365C109.144 80.7423 108.038 81.0351 107.634 81.0936C107.23 81.158 106.211 81.8196 105.936 81.9543C105.643 82.089 105.397 81.9953 105.298 81.9543C105.204 81.9075 104.987 82.1124 104.929 82.2061C104.882 82.2939 103.822 82.2646 103.523 82.5808C103.225 82.9028 102.909 83.8455 102.739 84.1499C102.569 84.4485 102.528 85.2214 102.751 85.3619C102.967 85.4966 102.563 85.9357 102.429 86.0411C102.288 86.1465 102.399 86.4217 102.323 86.527C102.253 86.65 101.586 86.4919 101.375 86.4568C101.158 86.4217 100.655 86.6559 100.532 86.7847C100.426 86.8959 99.8291 86.6676 99.548 86.7495C99.671 86.6442 99.8291 86.5095 99.9286 86.4392C100.145 86.3046 100.198 85.8771 100.157 85.7542C100.104 85.6312 100.625 84.6242 100.608 84.3373C100.59 84.0445 100.456 83.5 100.403 83.3771C100.356 83.26 100.649 83.0843 100.766 83.0023C100.871 82.9204 100.397 82.5632 100.215 82.5691C100.034 82.5632 99.4075 83.5 99.1909 83.7342C98.9801 83.9626 99.0621 84.5481 99.1382 84.6183C99.2084 84.6886 98.9098 85.157 98.7283 85.0692C98.541 84.9813 97.9731 85.5902 97.9731 85.801C97.9789 86.0177 97.5749 86.1992 97.4286 86.2167C97.288 86.2284 98.1019 86.6383 98.4707 86.8315C98.8337 87.0306 99.0269 87.3526 98.9684 87.3585C98.9157 87.3702 98.2073 87.0891 98.0082 87.1828C97.8033 87.2765 97.1827 87.3175 97.0363 87.3936C96.8841 87.458 96.9602 87.8561 97.1592 87.9498C97.3524 88.0435 97.1944 88.8281 97.2705 89.033C97.3466 89.2321 97.1007 89.5424 96.9836 89.6068C96.8606 89.6536 96.0702 88.992 95.6897 88.8925C95.3091 88.7812 94.4894 89.2496 94.3021 89.5014C94.1206 89.7531 93.7693 90.567 93.6931 90.807C93.617 91.0354 94.2435 91.574 94.3196 91.7555C94.4074 91.9429 95.1334 92.2181 95.2388 92.3645C95.3384 92.5108 96.2166 92.019 96.4976 91.7263C96.7845 91.4277 97.8618 91.1993 98.1546 91.0529C98.4356 90.9007 99.185 91.3691 99.4368 91.3457C99.7061 91.334 99.1967 91.978 99.0562 92.4172C98.9274 92.8563 99.6944 93.2251 99.7939 92.8036C99.8876 92.3762 100.163 92.3235 100.116 92.4757C100.081 92.6221 100.619 93.3188 100.637 93.5999C100.649 93.8809 100.368 94.2966 100.21 94.1971C100.052 94.1034 99.7764 94.5835 99.911 94.7357C100.052 94.8704 100.608 94.402 100.836 94.4196C101.076 94.4313 101.433 94.1444 101.357 94.0683C101.299 93.998 101.714 93.7931 101.755 93.9629C101.796 94.1327 101.785 93.0202 101.662 92.5518C101.533 92.0717 101.667 92.3235 101.96 93.1198C101.96 93.1198 101.96 93.1198 102.042 93.8809C102.06 94.0214 101.995 94.3786 101.995 94.525C101.995 94.7357 101.995 94.7357 101.995 94.7357C101.96 94.9699 101.738 95.532 101.656 95.6725C101.58 95.8189 101.72 96.2639 101.913 96.3576C102.101 96.4512 102.183 96.6327 102.142 96.6152C102.101 96.6035 102.054 97.0543 102.235 97.1656C102.411 97.2768 102.762 96.8494 102.581 96.7323C102.399 96.621 102.827 95.9536 102.967 95.6433C103.119 95.3271 103.412 95.169 103.471 95.21C103.541 95.2451 103.114 95.8248 103.038 95.9594C102.961 96.1058 102.879 96.4278 102.856 96.6737C102.856 96.6737 102.856 96.6737 102.956 96.9314C103.201 97.4993 103.201 97.4993 103.201 97.4993C103.922 97.6691 104.665 98.2721 104.56 98.3834C104.454 98.4946 104.923 98.7991 105.063 98.6117C105.21 98.4302 105.116 98.6469 105.034 98.7874C104.964 98.922 104.244 99.2441 104.033 99.4549C103.822 99.6715 102.511 98.6996 101.925 98.3073C101.34 97.9091 100.327 97.6047 100.151 97.751C99.9871 97.8974 99.3724 96.7498 99.0445 96.3166C98.7166 95.8892 98.7576 95.0285 98.7108 94.8997C98.6639 94.7533 98.9567 94.6362 98.986 94.4781C99.0211 94.32 98.0375 93.7345 97.692 93.676C97.3407 93.6174 95.7599 92.9207 95.3267 92.8856C94.8875 92.8387 94.4484 92.3645 94.2962 92.2415C94.1498 92.1186 93.4765 92.3879 93.2306 92.3586C92.9789 92.3293 92.3348 92.8738 91.7903 93.5706C91.7903 93.5706 91.7903 93.5706 91.2165 93.9395C90.8535 94.1795 90.8535 94.1795 90.8535 94.1795C90.151 94.2732 88.8922 95.21 88.5877 95.3681C88.2891 95.5262 87.1357 97.2475 86.7844 97.8564C86.439 98.4654 86.2399 100.046 86.1872 100.485C86.1345 100.924 86.6029 102.224 86.802 102.587C86.9952 102.944 87.9729 103.53 88.3067 103.717C88.6228 103.893 89.179 103.799 89.5128 103.501C89.5128 103.501 89.5128 103.501 89.9636 103.823C90.1685 103.969 90.1685 103.969 90.1685 103.969C90.028 104.244 90.6076 104.859 90.7306 105.046C90.8535 105.24 91.3512 105.427 91.5151 105.468C91.6791 105.503 91.1229 106.832 90.8184 107.142C90.514 107.435 90.1392 108.893 90.0221 109.326C89.9109 109.771 89.7528 111.048 89.583 111.446C89.4132 111.844 88.4121 112.91 88.1193 113.314C87.8207 113.718 87.7212 115.269 87.6392 115.773C87.5572 116.276 87.1767 117.242 87.0537 117.453C86.9366 117.664 86.8605 119.28 86.72 119.883C86.5151 120.486 88.0608 121.528 88.6404 121.528Z"
      fill="#80C6FF"
    />
    <path
      d="M125.262 122.06C125.262 122.177 125.848 122.084 126.111 122.189C126.381 122.289 126.902 121.721 126.738 121.569C126.574 121.405 126.621 120.766 126.521 120.62C126.41 120.485 125.988 120.608 125.889 120.807C125.783 121.018 125.286 120.843 125.11 120.954C124.929 121.077 124.864 121.188 124.964 121.229C125.069 121.276 125.28 121.949 125.262 122.06Z"
      fill="#80C6FF"
    />
    <path
      d="M122.745 125.334C122.892 125.357 123.126 124.631 122.909 124.438C122.675 124.239 121.463 124.742 121.299 125.345C121.135 125.937 121.299 125.989 121.434 125.919C121.568 125.849 121.885 126.27 121.978 126.382C122.084 126.493 122.148 126.364 122.136 126.101C122.136 125.843 122.599 125.304 122.745 125.334Z"
      fill="#80C6FF"
    />
    <path
      d="M121.726 123.911C121.884 123.701 122.346 122.998 122.463 122.881C122.58 122.758 122.393 122.096 122.217 121.909C122.042 121.71 120.52 122.805 119.881 122.781C119.243 122.77 118.552 123.566 118.558 123.853C118.576 124.134 119.536 124.825 119.618 125.082C119.712 125.346 120.01 125.27 120.133 125.305C120.256 125.346 120.262 125.252 120.233 125.199C120.203 125.147 120.847 124.954 121.052 124.725C121.263 124.491 121.562 124.122 121.726 123.911Z"
      fill="#80C6FF"
    />
    <path
      d="M117.539 124.795C117.241 124.432 116.655 124.403 116.538 124.532C116.415 124.655 117.791 125.755 118.218 126.183C118.64 126.598 118.927 126.827 118.862 126.68C118.792 126.516 117.838 125.158 117.539 124.795Z"
      fill="#80C6FF"
    />
    <path
      d="M126.217 116.704C126.433 116.604 126.591 115.644 126.351 115.749C126.1 115.843 125.941 116.358 125.895 116.551C125.854 116.739 126 116.803 126.217 116.704Z"
      fill="#80C6FF"
    />
    <path
      d="M126.164 118.922C126.363 118.77 126.299 118.436 126.006 118.173C125.725 117.921 125.204 118.928 125.28 119.139C125.35 119.344 125.953 119.08 126.164 118.922Z"
      fill="#80C6FF"
    />
    <path
      d="M124.384 125.996C124.618 126.493 125.567 126.862 125.895 126.347C125.661 125.873 124.689 125.381 124.384 125.996Z"
      fill="#80C6FF"
    />
    <path
      d="M131.053 113.805C130.83 113.823 130.578 114.069 130.561 114.215C130.537 114.198 130.52 114.18 130.491 114.169C130.368 114.098 130.051 114.608 130.139 114.772C130.221 114.936 130.83 114.631 131.076 114.619C131.31 114.602 131.702 114.731 131.726 114.795C131.761 114.865 132.112 114.941 132.522 114.976C132.592 114.982 132.71 114.93 132.832 114.854C132.979 114.432 133.102 114.01 133.225 113.583C132.991 113.612 132.733 113.636 132.604 113.665C132.347 113.718 131.357 113.782 131.053 113.805Z"
      fill="#80C6FF"
    />
    <path
      d="M116.199 119.086C116.199 119.092 116.205 119.092 116.205 119.092C116.164 119.005 116.159 118.993 116.199 119.086Z"
      fill="#80C6FF"
    />
    <path
      d="M117.341 122.752C117.388 122.354 117.224 121.54 116.995 120.949C116.995 120.949 116.995 120.949 116.978 120.592C116.972 120.194 116.972 120.194 116.972 120.194C116.995 119.778 116.662 119.251 116.668 119.128C116.673 119.011 116.31 119.298 116.211 119.093C116.258 119.204 116.369 119.432 116.521 119.754C116.791 120.34 116.41 123.045 116.515 123.314C116.627 123.584 117.3 123.15 117.341 122.752Z"
      fill="#80C6FF"
    />
    <path
      d="M112.388 115.21C112.124 115.38 112.593 116.358 112.721 116.27C112.862 116.182 113.032 115.48 112.979 115.269C112.92 115.052 112.657 115.029 112.388 115.21Z"
      fill="#80C6FF"
    />
    <path
      d="M95.4663 121.147C95.3492 121.428 95.7649 121.937 95.9405 121.984C96.1162 122.025 97.0061 121.481 97.1935 121.288C97.3867 121.088 97.7087 120.638 97.7789 120.515C97.8434 120.403 98.0658 120.181 98.142 120.181C98.2181 120.187 98.464 119.97 98.704 119.713C98.9265 119.437 99.3363 117.833 99.471 117.587C99.6057 117.335 99.1139 117.552 98.9089 117.757C98.6865 117.962 97.7146 118.073 97.4394 118.19C97.17 118.307 96.5963 118.922 96.5846 119.086C96.5728 119.232 96.1806 119.654 96.0342 119.748C95.882 119.841 95.5892 120.872 95.4663 121.147Z"
      fill="#80C6FF"
    />
    <path
      d="M65.0566 116.551C65.2089 116.639 65.367 116.727 65.525 116.82C65.888 116.364 65.2674 116.118 65.0566 116.551Z"
      fill="#80C6FF"
    />
    <path
      d="M107.276 71.2923C107.065 71.2045 106.614 70.8181 106.597 70.6775C106.544 70.5312 105.847 70.0276 105.566 69.9866C105.303 69.9515 105.806 69.4129 106.152 69.5182C106.491 69.6236 106.468 69.0499 106.158 68.8625C105.83 68.6751 105.104 68.1072 104.887 68.0428C104.676 67.9784 104.413 67.5978 104.284 67.4983C104.161 67.4046 103.031 67.1645 102.592 66.8835C102.153 66.6083 101.017 66.017 100.736 65.9526C100.455 65.8706 100.01 66.2512 99.9516 66.4327C99.8872 66.62 98.7865 65.9818 98.4352 65.7945C98.078 65.5954 95.9878 64.9279 95.3438 64.9162C94.7115 64.9045 93.9386 65.3729 94.0909 65.4783C94.2431 65.5837 93.5873 65.7301 93.277 65.6657C92.9609 65.6071 92.311 65.291 92.0826 65.3612C91.8543 65.4256 92.1002 65.6949 92.1061 65.8296C92.1061 65.9584 92.3871 65.8706 92.4925 66.0697C92.6037 66.2512 93.1248 66.6025 93.2419 66.7371C93.359 66.8835 92.6798 66.6493 92.3871 66.5029C92.0885 66.3624 91.8367 66.9596 92.0241 67.1645C92.2114 67.3753 92.7618 67.8027 92.8789 67.7383C92.996 67.6739 93.5288 68.2419 93.8098 68.4526C94.0791 68.6459 93.8859 69.5065 93.8859 69.7173C93.8859 69.9281 93.5873 70.4902 93.4761 70.6424C93.359 70.7888 93.7337 71.3918 93.8918 71.345C94.0382 71.2982 93.8157 71.6378 93.6049 71.4972C93.4058 71.3567 93.1892 72.0535 93.4058 72.2935C93.6166 72.5336 93.2243 72.8088 93.0018 72.838C92.7852 72.8673 92.6564 73.283 92.4281 73.324C92.1939 73.365 92.1997 75.0044 91.8309 75.6309C91.4737 76.269 91.5791 77.0126 91.7255 77.0946C91.8777 77.1766 92.3227 77.604 92.311 77.7796C92.3051 77.9553 92.6915 77.8675 92.8438 77.8206C93.0018 77.7738 93.3883 77.5923 93.6986 77.4166C94.0147 77.2351 95.0979 76.1695 95.2208 76.0641C95.3496 75.9529 95.8942 76.3803 96.0757 76.392C96.2454 76.3979 96.8075 76.31 96.9773 76.2866C97.1354 76.2573 98.1951 76.3861 98.5288 76.3452C98.8509 76.31 99.653 75.8065 99.9223 75.7597C100.186 75.707 99.893 75.5899 99.7466 75.3147C99.6003 75.0395 99.8111 74.9107 99.9106 74.8814C100.022 74.8463 100.601 75.4259 100.783 75.6543C100.964 75.8826 101.603 75.8124 101.497 75.5899C101.398 75.3674 101.491 75.4201 101.538 75.5196C101.597 75.6191 101.954 75.1976 101.907 75.0629C101.866 74.9224 102.973 74.7936 103.148 74.173C103.324 73.5582 103.991 73.1952 104.202 73.3123C104.419 73.4235 104.7 72.7853 104.477 72.5804C104.261 72.3813 104.524 72.4633 104.676 72.4282C104.817 72.393 105.244 71.9246 105.25 71.7841C105.256 71.6495 105.76 71.7841 105.912 71.708C106.058 71.6319 106.702 71.6787 106.907 71.7373C107.106 71.8017 107.487 71.3801 107.276 71.2923Z"
      fill="#80C6FF"
    />
    <path
      d="M111.427 74.2491C111.228 74.0325 110.596 74.0149 110.567 74.2023C110.543 74.3955 110.28 73.7807 109.864 73.7631C109.448 73.7456 109.039 74.2608 109.15 74.4189C109.255 74.5828 109.097 75.0864 109.056 75.1742C109.004 75.2679 109.665 75.5548 109.899 75.5196C110.133 75.4786 109.776 76.0524 109.53 76.1227C109.279 76.1871 109.314 76.6321 109.478 76.7492C109.636 76.8721 109.636 77.4108 109.817 77.5103C109.999 77.6157 110.69 77.1005 110.9 76.8838C111.117 76.6672 111.591 77.2 111.82 77.4401C112.042 77.6743 112.727 76.7082 112.522 76.3862C112.317 76.0641 111.913 75.9353 111.849 75.748C111.802 75.5606 111.656 75.3323 111.521 75.2327C111.404 75.1449 111.615 74.4599 111.427 74.2491Z"
      fill="#80C6FF"
    />
    <path
      d="M113.517 76.0878C113.945 76.4215 114.712 76.3395 114.893 76.2927C115.075 76.2517 113.798 75.1334 113.26 74.8114C112.721 74.4777 112.247 74.302 112.182 74.4191C112.13 74.5186 113.072 75.7365 113.517 76.0878Z"
      fill="#80C6FF"
    />
    <path
      d="M97.446 84.0214C97.3523 83.8984 97.0128 84.3317 96.9425 84.5308C96.8722 84.7298 97.3172 84.9582 97.528 85.0343C97.7329 85.1104 97.9671 85.0401 98.0491 84.8821C98.131 84.7181 98.2598 83.8692 98.1486 83.8047C98.0432 83.7462 97.5456 84.1443 97.446 84.0214Z"
      fill="#80C6FF"
    />
    <path
      d="M101.989 79.343C101.995 79.1088 101.234 78.7107 101.052 78.5936C100.883 78.4823 100.426 77.9671 100.379 77.7915C100.344 77.6158 99.94 78.1486 99.7233 78.1252C99.5067 78.1018 99.6999 78.3594 99.8053 78.336C99.9048 78.3125 99.6296 78.6287 99.4833 78.7107C99.3369 78.7926 99.8521 79.2025 99.817 79.4308C99.7702 79.6533 99.94 79.911 100.192 79.9988C100.432 80.0983 101.023 80.1217 101.193 80.1979C101.363 80.2681 101.989 79.5714 101.989 79.343Z"
      fill="#80C6FF"
    />
    <path
      d="M120.151 84.0151C120.55 83.898 121.808 84.1556 122.078 83.9624C122.353 83.7633 122.283 83.4354 122.177 83.3769C122.066 83.3183 121.867 83.371 121.814 83.4003C121.761 83.4296 120.386 83.0314 119.905 82.9963C119.437 82.9612 118.84 82.9963 118.594 83.0607C118.348 83.131 117.4 84.1907 117.242 84.2727C117.072 84.3605 117.288 85.1334 117.423 85.391C117.569 85.6486 117.909 85.754 118.008 85.7716C118.108 85.795 118.389 84.8406 118.448 84.4893C118.494 84.1205 119.747 84.1263 120.151 84.0151Z"
      fill="#80C6FF"
    />
    <path
      d="M120.637 80.1331C120.807 80.7596 121.351 80.3146 121.767 80.619C122.218 79.8111 120.965 79.4656 120.637 80.1331Z"
      fill="#80C6FF"
    />
    <path
      d="M128.319 84.7124C128.231 84.8529 129.274 85.6082 129.637 85.7429C129.994 85.8717 129.888 85.1398 129.396 84.8998C128.899 84.6539 128.419 84.5777 128.319 84.7124Z"
      fill="#80C6FF"
    />
    <path
      d="M83.1421 69.9461C82.9606 69.9812 82.7498 70.5901 82.9606 70.7306C83.1772 70.877 84.0086 70.2388 84.196 70.555C84.3658 70.8829 84.5239 71.0527 84.5239 70.9414C84.5297 70.8243 83.9384 70.0398 83.8798 69.9227C83.8213 69.8114 83.3236 69.9051 83.1421 69.9461Z"
      fill="#80C6FF"
    />
    <path
      d="M75.4258 90.1221C75.3731 90.2158 75.8649 90.4793 76.0347 90.368C76.1928 90.2626 76.2221 90.1221 76.0933 90.0401C75.9586 89.9757 75.4726 90.0284 75.4258 90.1221Z"
      fill="#80C6FF"
    />
    <path
      d="M73.7099 88.0905C73.9675 88.1783 73.6397 88.4945 73.6163 88.6584C73.5928 88.8282 74.0964 89.2556 74.1549 89.4079C74.2193 89.5601 74.6467 89.4605 74.8633 89.6186C75.0683 89.7709 75.2322 88.8048 74.8458 88.6116C74.4535 88.4184 74.3598 87.8856 74.3013 87.7919C74.231 87.7041 73.9441 87.1947 73.8797 87.019C73.8153 86.8492 72.9078 86.2227 72.5858 86.0354C72.2638 85.8539 71.7134 85.9768 71.608 86.0588C71.4851 86.1408 72.0179 86.5331 72.2287 86.5389C72.4394 86.5506 73.0835 87.1595 73.1362 87.423C73.1947 87.6982 73.4465 87.9968 73.7099 88.0905Z"
      fill="#80C6FF"
    />
    <path
      d="M72.2352 88.3006C72.1825 88.3943 72.7036 88.6168 72.8207 88.6871C72.9436 88.7573 72.9846 88.6754 72.9202 88.5056C72.8441 88.3358 72.2937 88.2128 72.2352 88.3006Z"
      fill="#80C6FF"
    />
    <path
      d="M74.0209 85.9709C73.9272 85.8479 73.7106 85.9884 73.6579 86.0879C73.5994 86.1816 73.6286 86.2929 73.7165 86.3456C73.7984 86.3983 74.1204 86.0938 74.0209 85.9709Z"
      fill="#80C6FF"
    />
    <path
      d="M75.0155 86.6436C75.0214 86.5206 74.8516 86.3215 74.7872 86.2864C74.7228 86.2454 74.5823 86.386 74.4886 86.5909C74.3832 86.7958 75.0038 86.7548 75.0155 86.6436Z"
      fill="#80C6FF"
    />
    <path
      d="M75.0979 88.2073C75.3497 88.219 75.5136 87.9965 75.3906 87.9438C75.2677 87.8852 75.2443 87.411 75.1506 87.2822C75.0511 87.1592 74.7876 87.3641 74.7232 87.4754C74.6588 87.5983 74.6881 87.7154 74.7876 87.7389C74.893 87.774 74.852 88.1838 75.0979 88.2073Z"
      fill="#80C6FF"
    />
    <path
      d="M125.632 127.243C125.503 127.237 124.97 127.015 124.958 126.88C124.947 126.751 124.683 126.991 124.548 126.979C124.414 126.968 124.32 127.26 124.525 127.266C124.671 127.278 124.993 127.805 125.239 128.262C125.526 127.928 125.807 127.588 126.094 127.237C125.913 127.231 125.714 127.249 125.632 127.243Z"
      fill="#80C6FF"
    />
    <path
      d="M89.6934 65.4543C89.6817 65.4018 89.4775 65.4251 89.5009 65.5184C89.5125 65.5768 89.7109 65.5535 89.6934 65.4543Z"
      fill="#BADFFF"
    />
    <path
      d="M87.0704 78.7453C87.0704 78.6928 86.8603 78.7161 86.8895 78.8095C86.9012 78.8736 87.0995 78.8503 87.0704 78.7453Z"
      fill="#BADFFF"
    />
    <path
      d="M77.8434 105.151C78.0308 105.087 78.7626 104.794 78.8329 104.677C78.9032 104.566 79.1491 104.296 79.3598 104.086C79.3598 104.086 79.3598 104.086 79.5296 103.787C79.8048 103.319 79.8048 103.319 79.8048 103.319C79.8809 102.868 79.7287 102.183 79.5765 102.224C79.4125 102.259 79.1783 101.568 78.991 101.34C78.8095 101.117 78.2533 100.707 78.0952 100.619C77.943 100.532 77.6678 99.8056 77.4746 99.6007C77.2872 99.3958 76.7486 98.9391 76.6842 98.8044C76.6198 98.6756 76.9711 97.6978 76.6607 97.1358C76.3446 96.5737 75.882 95.4085 75.9289 95.1099C75.9757 94.8055 75.3493 93.7574 75.156 93.4354C74.9628 93.1134 74.5471 92.8382 74.4652 92.8675C74.3773 92.8909 74.3247 92.1473 74.2251 91.8897C74.1314 91.6321 73.6513 91.1871 73.5401 91.3101C73.4406 91.4389 73.1186 91.1578 73.0951 90.988C73.0834 90.8299 72.697 90.8241 72.5389 90.7948C72.3867 90.7597 71.526 91.1988 71.2157 91.2515C70.9113 91.2983 70.8352 90.8299 70.7356 90.6894C70.6361 90.5548 70.0096 90.4142 69.8047 90.4318C69.5998 90.4552 69.7461 89.413 70.0447 89.0676C70.3433 88.728 70.3609 87.7034 70.0447 87.4985C69.7227 87.2935 70.0857 86.4211 70.3199 86.1577C70.56 85.8942 70.0096 85.3321 69.8515 85.2209C69.6993 85.0979 69.0494 85.2853 68.8621 85.4434C68.6747 85.6073 67.451 84.2724 68.1419 83.4819C68.8269 82.6857 70.0623 82.1646 70.3082 82.147C70.5424 82.1412 71.5377 82.633 71.6841 82.873C71.8188 83.1189 72.0822 83.1014 72.1583 83.0721C72.2286 83.037 72.9722 83.5463 73.1478 83.7747C73.3293 84.003 73.1478 85.1038 73.3235 85.3555C73.505 85.6073 73.9909 84.9574 74.1256 84.811C74.2661 84.6588 74.3539 84.1377 74.3598 83.9913C74.3715 83.8332 75.4429 82.996 75.9172 83.0135C76.3856 83.0311 77.1291 82.6447 77.1584 82.5159C77.1818 82.3871 77.5565 82.4925 77.6736 82.4925C77.7907 82.4983 78.1889 81.5498 78.4465 81.4386C78.7041 81.3273 79.6233 81.3156 79.8926 81.3507C80.162 81.38 80.6421 80.9116 80.6245 80.7711C80.6011 80.6247 81.5496 80.4432 81.9418 80.531C82.34 80.6189 82.4571 81.0755 82.3517 81.0755C82.4337 81.0814 83.0367 81.099 83.306 81.0814C83.6163 81.0638 83.6222 80.5193 83.5461 80.3144C83.47 80.1095 83.8388 79.6762 84.0379 79.7347C84.237 79.7933 84.6351 79.4596 84.6351 79.3483C84.6409 79.2254 85.3318 79.8343 85.7592 79.7816C86.1749 79.7289 85.5426 80.3612 85.1503 80.5427C84.7639 80.7184 84.9747 81.2219 85.1503 81.2453C85.3201 81.2629 85.3435 81.5732 85.326 81.6669C85.3084 81.7664 85.7007 81.7664 85.8529 81.9596C85.9993 82.1646 86.3154 81.8718 86.4325 81.7137C86.5379 81.5615 86.2452 80.9409 86.2862 80.7008C86.3213 80.4608 86.9419 79.3015 87.059 79.0614C87.1819 78.8214 87.0883 78.2593 86.9419 78.2652C86.8072 78.271 86.9887 77.4806 86.9126 77.2405C86.8307 77.0005 86.9712 76.655 87.0414 76.5496C87.1117 76.4384 86.8834 75.5367 86.9068 75.1854C86.9243 74.84 86.7077 74.7873 86.6257 74.8985C86.5379 75.0156 86.1398 74.8166 85.9876 74.7053C85.8412 74.5999 86.0578 73.9032 86.1866 73.6748C86.3213 73.4348 85.6187 72.984 85.6128 72.7263C85.6011 72.4746 85.08 72.2872 85.0742 72.1174C85.0742 71.9418 84.7229 71.5788 84.6117 71.5846C84.4946 71.5788 83.5871 73.2884 83.2475 73.6983C82.9079 74.1023 82.299 74.2838 82.1585 74.1959C82.0238 74.1081 81.9184 74.4887 82.0355 74.5121C82.1468 74.5414 81.4793 74.8517 81.2275 75.1737C80.9934 75.484 80.8411 74.9278 80.9641 74.5882C81.087 74.2428 80.9816 73.6221 80.8587 73.6983C80.7357 73.7685 80.6303 73.3997 80.4898 73.4055C80.3493 73.4172 79.957 72.6034 79.7814 72.3048C79.594 72.0237 79.9043 71.1396 79.799 70.9816C79.6877 70.8235 79.8692 70.8 79.9336 70.6771C79.998 70.5483 80.7709 70.3785 81.0343 70.279C81.2861 70.1794 82.2639 69.7696 82.5742 69.7462C82.8845 69.7169 83.2943 69.3949 83.306 69.2953C83.306 69.2016 84.4711 69.4534 84.7932 69.512C85.1152 69.5764 85.7709 68.9616 85.929 68.7684C86.0812 68.5752 86.1105 68.0482 86.0227 67.9311C85.9232 67.8082 86.4325 68.0716 86.5496 68.2531C86.6784 68.4288 87.3108 68.4815 87.4571 68.7098C87.5918 68.9265 87.8611 69.4007 88.0485 69.7579C88.0485 69.7579 88.0485 69.7579 87.6796 70.2672C87.0239 71.1221 87.0239 71.1221 87.0239 71.1221C86.0637 71.005 85.525 71.4324 85.8002 71.5788C86.0754 71.7251 87.0122 72.984 87.2171 73.4348C87.4279 73.8856 87.8845 73.3353 88.107 73.183C88.3237 73.0367 88.634 72.4277 88.6164 72.2638C88.6047 72.0999 89.0672 72.4219 89.1316 72.6268C89.1902 72.8434 89.5005 72.6619 89.6468 72.6736C89.7757 72.6854 90.1211 72.2111 90.244 72.135C90.3553 72.0706 90.1211 71.7954 90.1855 71.6607C90.2441 71.5261 89.8342 70.964 89.7054 70.7766C89.5649 70.5834 89.7347 70.1736 89.8693 70.156C89.9981 70.1443 90.127 69.5646 90.127 69.348C90.1328 69.1431 89.6234 68.6747 89.4361 68.5634C89.2429 68.4522 89.2897 67.8843 89.2253 67.7555C89.1433 67.6325 88.4407 67.1173 88.2241 67.0646C88.0133 67.0177 88.0075 66.239 87.5918 66.239C87.1761 66.239 87.0707 65.6652 86.977 65.5071C86.8775 65.3491 85.6948 65.7238 85.3904 66.2741C85.0801 66.8304 85.0508 67.5213 85.162 67.6091C85.2733 67.6911 84.84 68.1068 84.6351 68.177C84.4302 68.2473 84.2838 67.7789 84.4711 67.7203C84.6585 67.6618 84.5531 66.8362 84.5414 66.5201C84.5355 66.2859 84.2311 65.9228 84.0379 65.6711C83.792 65.7472 83.5578 65.8292 83.3119 65.917C83.2475 66.1512 83.1655 66.4498 82.9899 66.6079C82.6854 66.8889 82.3692 66.7718 82.4395 66.6196C82.4688 66.5493 82.3634 66.4205 82.2053 66.3034C75.3083 68.8796 69.1138 73.4172 64.5295 79.6411C64.5821 79.9221 64.6407 80.25 64.5997 80.4315C64.5295 80.7828 64.9334 81.2688 64.9978 81.3917C65.0564 81.4971 65.4428 80.894 65.4779 80.6891C65.5014 80.49 65.7473 80.4959 65.677 80.6189C65.6068 80.7418 65.7707 81.5674 65.8234 81.8601C65.8702 82.147 65.3023 83.5346 65.3023 83.8976C65.2964 84.2607 66.4616 85.6893 66.8831 86.0581C67.3047 86.427 67.6091 87.3111 67.6091 87.5219C67.6091 87.7268 68.2063 88.1718 68.3058 88.3123C68.4054 88.4528 68.4873 89.0676 68.5752 89.2315C68.6571 89.4013 68.6162 89.7175 68.5752 89.7878C68.5459 89.8522 69.1958 90.6484 69.2778 90.9939C69.3539 91.3335 69.7227 91.4681 69.8398 91.4037C69.9569 91.3452 69.8105 91.9834 69.7988 92.2176C69.7754 92.4518 69.5295 92.926 69.4241 92.9612C69.3187 92.9963 68.7157 93.7691 68.4815 93.8628C68.2356 93.9448 67.2461 95.0046 67.1641 95.2856C67.088 95.5666 67.1993 96.2926 67.3339 96.4683C67.4569 96.6381 67.2344 96.8606 67.0939 96.802C66.9475 96.7435 66.3445 97.9496 66.5611 98.3068C66.7836 98.6581 66.7484 99.3314 66.6489 99.3899C66.5435 99.4543 66.7953 100.42 66.9124 100.766C67.0236 101.111 66.9417 102.411 66.8597 102.798C66.7719 103.196 66.3972 103.699 66.2918 103.816C66.1922 103.922 66.1747 104.285 66.1337 104.419C66.0869 104.542 65.2906 105.409 65.1501 105.854C65.0096 106.305 63.7391 107.236 63.3995 107.868C63.0657 108.5 62.8842 109.46 63.0306 109.466C63.1828 109.466 62.8608 110.116 62.6325 110.081C62.4041 110.046 61.9006 110.415 61.9943 110.503C62.0821 110.591 61.6898 111.012 61.6079 111.223C61.5259 111.434 60.958 112.821 60.8116 113.155C60.6652 113.5 60.677 114.537 60.6243 114.859C60.5657 115.181 60.3784 115.737 60.3784 115.837C60.3666 115.93 60.3666 116.036 60.3725 116.042C60.3784 116.047 60.6711 116.393 60.7296 116.539C60.7999 116.686 61.5493 117.043 61.8128 117.136C62.0704 117.212 61.9826 116.879 61.9475 116.697C61.9065 116.522 62.1407 115.895 62.0528 115.766C61.9533 115.643 62.3222 114.882 62.5154 114.783C62.7203 114.683 63.2999 114.677 63.4229 114.566C63.5458 114.461 63.9323 113.834 63.8561 113.676C63.7917 113.524 64.3772 112.839 64.5119 112.411C64.6348 111.972 65.5892 112.06 65.8058 111.779C66.0224 111.498 67.0236 111.639 67.293 111.592C67.5623 111.545 68.2122 110.766 68.2356 110.526C68.259 110.292 68.7274 110.362 68.903 110.462C69.0728 110.561 69.3422 110.55 69.4066 110.585C69.4768 110.614 69.9042 110.35 70.0623 110.327C70.2262 110.304 70.9757 109.519 71.2626 109.478C71.5553 109.443 72.0354 108.986 72.1232 108.822C72.2228 108.658 72.8082 108.354 72.9897 108.266C73.1712 108.172 74.1256 108.26 74.2954 108.284C74.4593 108.307 75.3551 107.206 75.6713 106.796C75.9699 106.387 76.5319 105.93 76.6256 105.795C76.7193 105.661 77.0355 105.678 77.1057 105.655C77.1526 105.666 77.6502 105.21 77.8434 105.151Z"
      fill="#B8DDFF"
    />
    <path
      d="M91.0524 64.7582C91.3217 64.6528 92.4166 64.887 92.7152 64.8811C93.0079 64.8753 93.7574 64.6821 93.9798 64.7348C94.1965 64.7874 94.7117 64.5064 94.7175 64.3952C94.7234 64.2898 95.625 64.2605 95.9412 64.3015C96.2574 64.3366 96.556 64.12 96.4682 64.0439C96.4096 64.0029 94.577 63.9385 92.8733 63.9385C90.8241 64.0966 88.7983 64.4303 86.8018 64.9104C87.2292 65.1095 87.8966 65.3905 88.1894 65.5018C88.6343 65.6598 89.3662 65.935 89.4774 65.8413C89.5653 65.7711 89.7292 65.4959 89.7058 65.3554C89.7643 65.3905 89.8404 65.4432 89.899 65.4725C90.0395 65.5603 90.7831 64.8636 91.0524 64.7582Z"
      fill="#B8DDFF"
    />
    <path
      d="M123.301 87.8737C123.278 87.8913 123.254 87.8971 123.249 87.9088C123.108 87.9908 123.032 87.6922 123.137 87.5283C123.243 87.3585 122.804 86.9311 122.663 87.0247C122.511 87.1243 122.265 86.7378 122.16 86.5798C122.054 86.4158 121.041 86.7203 120.672 86.8198C120.304 86.9252 119.062 86.4685 118.904 86.2577C118.752 86.0528 118.202 86.5212 118.36 86.6617C118.518 86.7964 117.921 86.369 117.546 86.205C117.177 86.0352 115.924 85.8654 115.584 85.9064C115.233 85.9533 115.169 85.6137 115.245 85.479C115.321 85.3444 115.005 84.9872 114.911 84.8818C114.818 84.7764 114.138 85.4497 113.846 85.4849C113.553 85.5259 113.764 84.6066 113.354 84.2085C112.956 83.8045 112.47 82.9321 112.288 82.7506C112.113 82.5749 111.937 81.8841 111.896 81.6908C111.855 81.5035 111.305 81.0468 111.106 80.9297C110.918 80.8243 110.081 80.8243 109.829 80.8711C109.577 80.9121 109.337 80.7365 109.226 80.7423C109.115 80.7482 108.008 81.0409 107.604 81.0995C107.2 81.1639 106.182 81.8255 105.906 81.9602C105.614 82.0948 105.368 82.0012 105.268 81.9602C105.175 81.9133 104.958 82.1183 104.899 82.2119C104.853 82.2998 103.793 82.2705 103.494 82.5867C103.196 82.9087 102.879 83.8513 102.71 84.1558C102.54 84.4544 102.499 85.2273 102.721 85.3678C102.938 85.5024 102.534 85.9416 102.399 86.0469C102.259 86.1523 102.37 86.4275 102.294 86.5329C102.224 86.6559 101.556 86.4978 101.345 86.4627C101.129 86.4275 100.625 86.6617 100.502 86.7905C100.397 86.9018 99.7998 86.6734 99.5187 86.7554C99.6417 86.65 99.7998 86.5153 99.8993 86.4451C100.116 86.3104 100.169 85.883 100.128 85.7601C100.075 85.6371 100.596 84.63 100.578 84.3432C100.561 84.0504 100.426 83.5059 100.374 83.3829C100.327 83.2658 100.619 83.0902 100.737 83.0082C100.842 82.9262 100.368 82.5691 100.186 82.5749C100.005 82.5691 99.3782 83.5059 99.1616 83.7401C98.9508 83.9684 99.0328 84.5539 99.1089 84.6242C99.1791 84.6944 98.8805 85.1628 98.699 85.075C98.5117 84.9872 97.9438 85.5961 97.9438 85.8069C97.9496 86.0235 97.5456 86.205 97.3993 86.2226C97.2587 86.2343 98.0726 86.6442 98.4414 86.8374C98.8044 87.0364 98.9976 87.3585 98.9391 87.3643C98.8864 87.376 98.178 87.095 97.9789 87.1887C97.774 87.2824 97.1534 87.3233 97.007 87.3995C96.8548 87.4639 96.9309 87.862 97.1299 87.9557C97.3231 88.0494 97.1651 88.8339 97.2412 89.0388C97.3173 89.2379 97.0714 89.5482 96.9543 89.6126C96.8313 89.6595 96.0409 88.9979 95.6604 88.8983C95.2798 88.7871 94.4601 89.2555 94.2728 89.5072C94.0913 89.759 93.74 90.5728 93.6639 90.8129C93.5877 91.0412 94.2142 91.5799 94.2903 91.7614C94.3782 91.9488 95.1042 92.224 95.2095 92.3703C95.3091 92.5167 96.1873 92.0249 96.4683 91.7321C96.7552 91.4335 97.8325 91.2052 98.1253 91.0588C98.4063 90.9066 99.1557 91.375 99.4075 91.3516C99.6768 91.3399 99.1674 91.9839 99.0269 92.423C98.8981 92.8621 99.6651 93.231 99.7646 92.8095C99.8583 92.382 100.133 92.3293 100.087 92.4816C100.052 92.6279 100.59 93.3247 100.608 93.6057C100.619 93.8868 100.338 94.3025 100.18 94.2029C100.022 94.1093 99.7471 94.5894 99.8817 94.7416C100.022 94.8763 100.578 94.4079 100.807 94.4254C101.047 94.4371 101.404 94.1502 101.328 94.0741C101.269 94.0039 101.685 93.799 101.726 93.9687C101.767 94.1385 101.755 93.0261 101.632 92.5577C101.504 92.0776 101.638 92.3293 101.931 93.1256C101.931 93.1256 101.931 93.1256 102.013 93.8868C102.03 94.0273 101.966 94.3844 101.966 94.5308C101.966 94.7416 101.966 94.7416 101.966 94.7416C101.931 94.9758 101.708 95.5379 101.626 95.6784C101.55 95.8248 101.691 96.2698 101.884 96.3634C102.071 96.4571 102.153 96.6386 102.112 96.6211C102.071 96.6093 102.025 97.0602 102.206 97.1714C102.382 97.2827 102.733 96.8552 102.552 96.7381C102.37 96.6269 102.797 95.9594 102.938 95.6491C103.09 95.333 103.383 95.1749 103.441 95.2158C103.512 95.251 103.084 95.8306 103.008 95.9653C102.932 96.1117 102.85 96.4337 102.827 96.6796C102.827 96.6796 102.827 96.6796 102.926 96.9372C103.172 97.5051 103.172 97.5051 103.172 97.5051C103.892 97.6749 104.636 98.278 104.531 98.3892C104.425 98.5005 104.893 98.805 105.034 98.6176C105.18 98.4361 105.087 98.6527 105.005 98.7932C104.934 98.9279 104.214 99.2499 104.004 99.4607C103.793 99.6773 102.481 98.7054 101.896 98.3131C101.31 97.915 100.297 97.6105 100.122 97.7569C99.9578 97.9033 99.3431 96.7557 99.0152 96.3224C98.6873 95.895 98.7283 95.0343 98.6815 94.9055C98.6346 94.7592 98.9274 94.6421 98.9567 94.484C98.9918 94.3259 98.0082 93.7404 97.6627 93.6818C97.3114 93.6233 95.7306 92.9266 95.2974 92.8914C94.8583 92.8446 94.4191 92.3703 94.2669 92.2474C94.1205 92.1244 93.4472 92.3938 93.2013 92.3645C92.9496 92.3352 92.3055 92.8797 91.761 93.5765C91.761 93.5765 91.761 93.5765 91.1872 93.9453C90.8242 94.1854 90.8242 94.1854 90.8242 94.1854C90.1217 94.2791 88.8629 95.2159 88.5584 95.3739C88.2598 95.532 87.1064 97.2534 86.7551 97.8623C86.4097 98.4712 86.2106 100.052 86.1579 100.491C86.1052 100.93 86.5736 102.23 86.7727 102.593C86.9659 102.95 87.9436 103.536 88.2774 103.723C88.5935 103.899 89.1497 103.805 89.4835 103.507C89.4835 103.507 89.4835 103.507 89.9343 103.829C90.1392 103.975 90.1392 103.975 90.1392 103.975C89.9987 104.25 90.5783 104.865 90.7013 105.052C90.8242 105.245 91.3219 105.433 91.4858 105.474C91.6498 105.509 91.0936 106.838 90.7891 107.148C90.4847 107.441 90.11 108.899 89.9929 109.332C89.8816 109.777 89.7235 111.054 89.5537 111.452C89.3839 111.85 88.3828 112.915 88.09 113.319C87.7914 113.723 87.6919 115.275 87.6099 115.779C87.528 116.282 87.1474 117.248 87.0244 117.459C86.9073 117.67 86.8312 119.286 86.6907 119.889C86.5385 120.492 88.0842 121.534 88.6579 121.528C89.2434 121.516 90.5959 120.843 90.9648 120.761C91.3395 120.667 91.9835 119.947 92.1357 119.795C92.288 119.643 92.8208 119.561 92.9788 119.602C93.1428 119.637 94.6123 118.062 95.2271 117.886C95.8419 117.711 97.3934 116.042 97.7388 115.316C98.0843 114.596 99.1323 113.437 99.4075 113.173C99.6827 112.91 100.485 112.623 100.701 112.593C100.918 112.558 102.628 111.709 103.207 111.393C103.787 111.065 104.694 110.146 104.776 109.865C104.864 109.578 104.32 109.028 104.127 109.086C103.939 109.145 103.272 108.899 103.078 108.788C102.879 108.676 103.026 107.383 102.874 107.008C102.715 106.639 103.155 105.304 103.119 104.982C103.09 104.666 102.967 103.84 102.903 103.629C102.838 103.419 103.172 102.775 103.248 102.576C103.313 102.388 103.447 102.845 103.36 103.126C103.266 103.407 103.401 104.836 103.43 105.304C103.459 105.772 103.418 107.201 103.371 107.623C103.33 108.05 104.724 108.618 105.256 108.659C105.789 108.7 106.515 108.665 106.597 108.559C106.679 108.46 107.528 108.524 107.803 108.483C108.073 108.442 108.682 107.763 108.875 107.699C109.074 107.64 109.279 106.768 109.273 106.469C109.255 106.165 108.682 105.603 108.5 105.62C108.307 105.626 108.354 104.877 108.371 104.596C108.395 104.32 108.026 103.764 108.055 103.583C108.084 103.401 108.412 103.278 108.524 103.278C108.629 103.272 109.197 104.478 109.291 104.976C109.372 105.462 109.337 106.252 109.331 106.387C109.32 106.522 110.04 107.002 110.28 106.973C110.52 106.949 110.696 107.09 110.666 107.289C110.666 107.289 110.666 107.289 110.924 107.383C111.826 107.722 111.826 107.722 111.826 107.722C111.966 108.366 111.878 108.794 111.82 108.881C111.767 108.952 111.82 109.443 111.954 109.566C112.095 109.701 111.902 110.304 111.873 110.462C111.849 110.626 111.855 111.703 111.761 112.09C111.668 112.488 111.685 113.372 111.685 113.606C111.685 113.841 111.474 114.403 111.387 114.543C111.31 114.678 111.457 115.129 111.644 115.222C111.837 115.31 112.891 114.35 113.231 113.964C113.565 113.571 114.08 113.384 114.162 113.431C114.25 113.483 114.46 113.278 114.513 113.185C114.566 113.091 115.034 113.372 115.151 113.278C115.257 113.185 115.848 112.476 116.082 112.459C116.328 112.435 117.154 112.389 117.411 112.435C117.493 112.447 117.569 112.535 117.651 112.664C117.932 112.207 118.213 111.75 118.483 111.282C122.64 103.899 124.144 95.7194 123.301 87.8737Z"
      fill="#B8DDFF"
    ></path>
    <path
      d="M112.721 116.27C112.862 116.182 113.031 115.48 112.979 115.269C112.92 115.052 112.657 115.029 112.387 115.21C112.13 115.38 112.592 116.358 112.721 116.27Z"
      fill="#B8DDFF"
    />
    <path
      d="M95.4663 121.147C95.3492 121.428 95.7649 121.937 95.9405 121.984C96.1162 122.025 97.0061 121.481 97.1935 121.288C97.3867 121.088 97.7087 120.638 97.7789 120.515C97.8434 120.403 98.0658 120.181 98.142 120.181C98.2181 120.187 98.464 119.97 98.704 119.713C98.9265 119.437 99.3363 117.833 99.471 117.587C99.6057 117.335 99.1139 117.552 98.9089 117.757C98.6865 117.962 97.7146 118.073 97.4394 118.19C97.17 118.307 96.5963 118.922 96.5846 119.086C96.5728 119.232 96.1806 119.654 96.0342 119.748C95.882 119.841 95.5892 120.872 95.4663 121.147Z"
      fill="#B8DDFF"
    />
    <path
      d="M65.0566 116.551C65.2089 116.639 65.367 116.727 65.525 116.82C65.888 116.364 65.2674 116.118 65.0566 116.551Z"
      fill="#B8DDFF"
    />
    <path
      d="M98.4352 65.7945C98.078 65.5954 95.9878 64.9279 95.3438 64.9162C94.7115 64.9045 93.9386 65.3729 94.0909 65.4783C94.2431 65.5837 93.5873 65.7301 93.277 65.6657C92.9609 65.6071 92.311 65.291 92.0826 65.3612C91.8543 65.4256 92.1002 65.6949 92.1061 65.8296C92.1061 65.9584 92.3871 65.8706 92.4925 66.0697C92.6037 66.2512 93.1248 66.6025 93.2419 66.7371C93.359 66.8835 92.6798 66.6493 92.3871 66.5029C92.0885 66.3624 91.8367 66.9596 92.0241 67.1645C92.2114 67.3753 92.7618 67.8027 92.8789 67.7383C92.996 67.6739 93.5288 68.2419 93.8098 68.4526C94.0791 68.6459 93.8859 69.5065 93.8859 69.7173C93.8859 69.9281 93.5873 70.4902 93.4761 70.6424C93.359 70.7888 93.7337 71.3918 93.8918 71.345C94.0382 71.2982 93.8157 71.6378 93.6049 71.4972C93.4058 71.3567 93.1892 72.0535 93.4058 72.2935C93.6166 72.5336 93.2243 72.8088 93.0018 72.838C92.7852 72.8673 92.6564 73.283 92.4281 73.324C92.1939 73.365 92.1997 75.0044 91.8309 75.6309C91.4737 76.269 91.5791 77.0126 91.7255 77.0946C91.8777 77.1766 92.3227 77.604 92.311 77.7796C92.3051 77.9553 92.6915 77.8675 92.8438 77.8206C93.0018 77.7738 93.3883 77.5923 93.6986 77.4166C94.0147 77.2351 95.0979 76.1695 95.2208 76.0641C95.3496 75.9529 95.8942 76.3803 96.0757 76.392C96.2454 76.3979 96.8075 76.31 96.9773 76.2866C97.1354 76.2573 98.1951 76.3861 98.5288 76.3452C98.8509 76.31 99.653 75.8065 99.9223 75.7597C100.186 75.707 99.893 75.5899 99.7466 75.3147C99.6003 75.0395 99.8111 74.9107 99.9106 74.8814C100.022 74.8463 100.601 75.4259 100.783 75.6543C100.964 75.8826 101.603 75.8124 101.497 75.5899C101.398 75.3674 101.491 75.4201 101.538 75.5196C101.597 75.6191 101.954 75.1976 101.907 75.0629C101.866 74.9224 102.973 74.7936 103.148 74.173C103.324 73.5582 103.991 73.1952 104.202 73.3123C104.419 73.4235 104.7 72.7853 104.477 72.5804C104.261 72.3813 104.524 72.4633 104.676 72.4282C104.817 72.393 105.244 71.9246 105.25 71.7841C105.256 71.6495 105.76 71.7841 105.912 71.708C106.058 71.6319 106.702 71.6787 106.907 71.7373C107.106 71.8017 107.481 71.3743 107.27 71.2923C107.059 71.2045 106.609 70.8181 106.591 70.6775C106.538 70.5312 105.842 70.0276 105.561 69.9866C105.297 69.9515 105.801 69.4129 106.146 69.5182C106.486 69.6236 106.462 69.0499 106.152 68.8625C105.824 68.6751 105.098 68.1072 104.881 68.0428C104.671 67.9784 104.407 67.5978 104.278 67.4983C104.155 67.4046 103.025 67.1645 102.586 66.8835C102.147 66.6083 101.011 66.017 100.73 65.9526C100.449 65.8706 100.004 66.2512 99.9457 66.4327C99.8872 66.62 98.7865 65.9818 98.4352 65.7945Z"
      fill="#B8DDFF"
    />
    <path
      d="M109.477 76.7492C109.635 76.8721 109.635 77.4108 109.817 77.5103C109.998 77.6157 110.689 77.1005 110.9 76.8838C111.117 76.6672 111.591 77.2 111.819 77.4401C112.042 77.6743 112.727 76.7082 112.522 76.3862C112.317 76.0641 111.913 75.9353 111.848 75.748C111.802 75.5606 111.655 75.3323 111.521 75.2327C111.404 75.1391 111.62 74.454 111.433 74.2432C111.234 74.0266 110.601 74.009 110.572 74.1964C110.549 74.3896 110.285 73.7748 109.87 73.7573C109.454 73.7397 109.044 74.2549 109.155 74.413C109.261 74.577 109.103 75.0805 109.062 75.1683C109.009 75.262 109.67 75.5489 109.905 75.5138C110.139 75.4728 109.782 76.0466 109.536 76.1168C109.278 76.1871 109.313 76.6262 109.477 76.7492Z"
      fill="#B8DDFF"
    />
    <path
      d="M114.888 76.2868C115.069 76.2459 113.793 75.1275 113.254 74.8055C112.716 74.4718 112.241 74.2961 112.177 74.4132C112.124 74.5245 113.073 75.7423 113.512 76.0878C113.945 76.4215 114.706 76.3337 114.888 76.2868Z"
      fill="#B8DDFF"
    />
    <path
      d="M97.446 84.0214C97.3523 83.8984 97.0128 84.3317 96.9425 84.5308C96.8722 84.7298 97.3172 84.9582 97.528 85.0343C97.7329 85.1104 97.9671 85.0401 98.0491 84.8821C98.131 84.7181 98.2598 83.8692 98.1486 83.8047C98.0432 83.7462 97.5456 84.1443 97.446 84.0214Z"
      fill="#B8DDFF"
    />
    <path
      d="M101.989 79.343C101.995 79.1088 101.234 78.7107 101.052 78.5936C100.883 78.4823 100.426 77.9671 100.379 77.7915C100.344 77.6158 99.94 78.1486 99.7233 78.1252C99.5067 78.1018 99.6999 78.3594 99.8053 78.336C99.9048 78.3125 99.6296 78.6287 99.4833 78.7107C99.3369 78.7926 99.8521 79.2025 99.817 79.4308C99.7702 79.6533 99.94 79.911 100.192 79.9988C100.432 80.0983 101.023 80.1217 101.193 80.1979C101.363 80.2681 101.989 79.5714 101.989 79.343Z"
      fill="#B8DDFF"
    />
    <path
      d="M118.594 83.0547C118.348 83.1249 117.4 84.1847 117.242 84.2667C117.072 84.3545 117.288 85.1273 117.423 85.385C117.569 85.6426 117.909 85.748 118.008 85.7655C118.108 85.789 118.389 84.8346 118.448 84.4833C118.494 84.1203 119.747 84.1261 120.151 84.0208C120.55 83.9037 121.808 84.1613 122.078 83.9681C122.353 83.769 122.283 83.4411 122.177 83.3826C122.066 83.324 121.867 83.3767 121.814 83.406C121.761 83.4353 120.386 83.0371 119.905 83.002C119.437 82.9551 118.846 82.9903 118.594 83.0547Z"
      fill="#B8DDFF"
    />
    <path
      d="M120.637 80.1334C120.807 80.7599 121.351 80.3149 121.767 80.6194C121.784 80.5901 121.784 80.5667 121.79 80.5374C121.726 80.3208 121.655 80.0983 121.591 79.8758C121.292 79.7119 120.824 79.7587 120.637 80.1334Z"
      fill="#B8DDFF"
    />
    <path
      d="M83.1421 69.9461C82.9606 69.9812 82.7498 70.5901 82.9606 70.7306C83.1772 70.877 84.0086 70.2388 84.196 70.555C84.3658 70.8829 84.5239 71.0527 84.5239 70.9414C84.5297 70.8243 83.9384 70.0398 83.8798 69.9227C83.8213 69.8114 83.3236 69.9051 83.1421 69.9461Z"
      fill="#B8DDFF"
    />
    <path
      d="M75.4258 90.1221C75.3731 90.2158 75.8649 90.4793 76.0347 90.368C76.1928 90.2626 76.2221 90.1221 76.0933 90.0401C75.9586 89.9757 75.4726 90.0284 75.4258 90.1221Z"
      fill="#B8DDFF"
    />
    <path
      d="M73.7099 88.0905C73.9675 88.1783 73.6397 88.4945 73.6163 88.6584C73.5928 88.8282 74.0964 89.2556 74.1549 89.4079C74.2193 89.5601 74.6467 89.4605 74.8633 89.6186C75.0683 89.7709 75.2322 88.8048 74.8458 88.6116C74.4535 88.4184 74.3598 87.8856 74.3013 87.7919C74.231 87.7041 73.9441 87.1947 73.8797 87.019C73.8153 86.8492 72.9078 86.2227 72.5858 86.0354C72.2638 85.8539 71.7134 85.9768 71.608 86.0588C71.4851 86.1408 72.0179 86.5331 72.2287 86.5389C72.4394 86.5506 73.0835 87.1595 73.1362 87.423C73.1947 87.6982 73.4465 87.9968 73.7099 88.0905Z"
      fill="#B8DDFF"
    />
    <path
      d="M72.2342 88.3006C72.1815 88.3943 72.7026 88.6168 72.8197 88.6871C72.9426 88.7573 72.9836 88.6754 72.9192 88.5056C72.8431 88.3358 72.2927 88.2128 72.2342 88.3006Z"
      fill="#B8DDFF"
    />
    <path
      d="M74.0199 85.9709C73.9263 85.8479 73.7096 85.9884 73.6569 86.0879C73.5984 86.1816 73.6277 86.2929 73.7155 86.3456C73.7974 86.3983 74.1195 86.0938 74.0199 85.9709Z"
      fill="#B8DDFF"
    />
    <path
      d="M75.0155 86.6436C75.0214 86.5206 74.8516 86.3215 74.7872 86.2864C74.7228 86.2454 74.5823 86.386 74.4886 86.5909C74.3832 86.7958 75.0038 86.7548 75.0155 86.6436Z"
      fill="#B8DDFF"
    />
    <path
      d="M75.0979 88.2073C75.3497 88.219 75.5136 87.9965 75.3906 87.9438C75.2677 87.8852 75.2443 87.411 75.1506 87.2822C75.0511 87.1592 74.7876 87.3641 74.7232 87.4754C74.6588 87.5983 74.6881 87.7154 74.7876 87.7389C74.893 87.774 74.852 88.1838 75.0979 88.2073Z"
      fill="#B8DDFF"
    />
    <path
      d="M76.9829 44.1012V25.3711"
      stroke="#7EB3FF"
      strokeWidth="3.89871"
      strokeMiterlimit="10"
    />
    <path
      d="M116.937 26.5361V18.708"
      stroke="#7EB3FF"
      strokeWidth="1.94931"
      strokeMiterlimit="10"
    />
    <path
      d="M83.769 21.7998V13.9658"
      stroke="#9AC7F7"
      strokeWidth="3.89871"
      strokeMiterlimit="10"
    />
    <path
      d="M96.8721 25.3711H95.6191V44.1012H96.8721V25.3711Z"
      fill="#28008C"
    />
    <path
      d="M86.4268 34.7333V0.704102"
      stroke="#9AC7F7"
      strokeWidth="1.94931"
      strokeMiterlimit="10"
    />
    <path
      d="M63.8269 41.9802L62.1792 43.6279L63.0652 44.5139L64.7129 42.8662L63.8269 41.9802Z"
      fill="#28008C"
    />
    <path
      d="M59.6267 46.1784L57.979 47.8262L58.865 48.7121L60.5127 47.0644L59.6267 46.1784Z"
      fill="#28008C"
    />
    <path
      d="M63.0663 46.1845L62.1802 47.0703L63.8277 48.7183L64.7137 47.8324L63.0663 46.1845Z"
      fill="#28008C"
    />
    <path
      d="M58.8651 41.9765L57.979 42.8623L59.6265 44.5103L60.5126 43.6244L58.8651 41.9765Z"
      fill="#28008C"
    />
    <path
      d="M118.008 2.18326L116.354 3.83398L117.24 4.72058L118.893 3.06986L118.008 2.18326Z"
      fill="#28008C"
    />
    <path
      d="M113.805 6.3789L112.153 8.03125L113.04 8.91697L114.691 7.26463L113.805 6.3789Z"
      fill="#28008C"
    />
    <path
      d="M117.23 6.37489L116.344 7.26074L117.996 8.91286L118.882 8.02701L117.23 6.37489Z"
      fill="#28008C"
    />
    <path
      d="M113.036 2.17945L112.15 3.06543L113.798 4.71317L114.684 3.82719L113.036 2.17945Z"
      fill="#28008C"
    />
    <path
      d="M102.101 146.089V164.819"
      stroke="#7EB3FF"
      strokeWidth="3.89871"
      strokeMiterlimit="10"
    />
    <path
      d="M111.58 168.391V176.225"
      stroke="#9AC7F7"
      strokeWidth="3.89871"
      strokeMiterlimit="10"
    />
    <path
      d="M83.4697 146.089H82.2168V164.819H83.4697V146.089Z"
      fill="#28008C"
    />
    <path
      d="M92.6504 155.457V188.233"
      stroke="#9AC7F7"
      strokeWidth="1.94931"
      strokeMiterlimit="10"
    />
    <path
      d="M112.018 45.3129C109.665 45.3129 107.756 43.4042 107.756 41.0505C107.756 38.6968 109.665 36.7881 112.018 36.7881C114.372 36.7881 116.281 38.6968 116.281 41.0505C116.281 43.4042 114.372 45.3129 112.018 45.3129Z"
      stroke="#9AC7F7"
      strokeWidth="1.94931"
      strokeMiterlimit="10"
    />
    <path
      d="M101.357 181.254C99.9166 181.254 98.7515 180.089 98.7515 178.648C98.7515 177.208 99.9224 176.043 101.357 176.043C102.797 176.043 103.962 177.214 103.962 178.648C103.962 180.089 102.797 181.254 101.357 181.254Z"
      fill="#7EB3FF"
    />
    <path
      d="M84.0612 168.994H75.3667V177.695H84.0612V168.994Z"
      stroke="#7EB3FF"
      strokeWidth="1.94931"
      strokeMiterlimit="10"
    />
    <path
      d="M134.55 107.648V112.736"
      stroke="#0450CF"
      strokeWidth="1.94931"
      strokeMiterlimit="10"
    />
    <path
      d="M123.537 114.007L127.94 116.554"
      stroke="#0450CF"
      strokeWidth="1.94931"
      strokeMiterlimit="10"
    />
    <path
      d="M123.537 126.73L127.94 124.183"
      stroke="#0450CF"
      strokeWidth="1.94931"
      strokeMiterlimit="10"
    />
    <path
      d="M134.55 133.088V128"
      stroke="#0450CF"
      strokeWidth="1.94931"
      strokeMiterlimit="10"
    />
    <path
      d="M145.569 126.73L141.166 124.183"
      stroke="#0450CF"
      strokeWidth="1.94931"
      strokeMiterlimit="10"
    />
    <path
      d="M145.569 114.007L141.161 116.548"
      stroke="#0450CF"
      strokeWidth="1.94931"
      strokeMiterlimit="10"
    />
    <path
      d="M176.143 134.657L158.01 128.767L139.884 122.871L145.774 141.004L151.664 159.131L158.034 146.73L167.712 156.414L173.42 150.706L163.737 141.027L176.143 134.657Z"
      fill="#0561FC"
    />
    <path
      d="M158.01 128.767L139.884 122.871L140.077 123.48L170.364 153.762L173.42 150.706L163.737 141.027L176.143 134.657L158.01 128.767Z"
      fill="#28008C"
    />
  </svg>