<svg viewBox="0 0 255 44" fill="none" xmlns="http://www.w3.org/2000/svg"><path d="M98.732 15.206h2.431v2.207h-1.041a1.392 1.392 0 0 1-1.39-1.387v-.82Z" fill="#80BC00"/><path d="M50.904 18.58a1.646 1.646 0 0 0-1.55 1.092l-1.952 5.49-1.952-5.49a1.64 1.64 0 0 0-1.55-1.092h-1.542l4.094 10.104h1.902l4.093-10.104h-1.543Zm23.878 6.822c-.658 2.151-2.798 3.613-5.028 3.613a5.558 5.558 0 0 1-3.764-1.512 5.373 5.373 0 0 1-1.255-5.885 5.38 5.38 0 0 1 1.985-2.444 5.397 5.397 0 0 1 3.016-.918c2.231 0 4.442 1.495 5.046 3.685h-2.735a2.52 2.52 0 0 0-2.342-1.314c-1.736 0-2.925 1.294-2.925 2.973 0 1.788 1.28 3.05 3.057 3.05a2.638 2.638 0 0 0 2.21-1.248h2.735Zm1.402-10.196h1.5a.935.935 0 0 1 .931.931v3.21c.549-.749 1.7-1.095 2.597-1.095a4.109 4.109 0 0 1 2.98 1.35c.931 1.058.968 2.262.968 3.61v5.472h-2.432v-4.941c0-1.515-.163-3.12-2.064-3.12a1.912 1.912 0 0 0-1.665.875c-.408.638-.383 1.57-.383 2.281v3.947a.957.957 0 0 1-.96.958h-1.472V15.206ZM96.85 28.684h-2.23v-1.369h-.037c-.727 1.042-2.154 1.7-3.436 1.7a4.758 4.758 0 0 1-3.728-1.698 5.756 5.756 0 0 1-1.261-3.682c0-1.405.365-2.572 1.298-3.63a4.764 4.764 0 0 1 3.764-1.75 4.07 4.07 0 0 1 3.4 1.75v-.494a.93.93 0 0 1 .933-.931h1.299v10.104Zm-5.237-8.06c-1.79-.019-3.035 1.331-3.035 3.1a2.916 2.916 0 0 0 1.856 2.717c.364.142.752.21 1.142.201 1.757.019 2.961-1.295 2.961-3.027 0-1.696-1.204-3.01-2.924-2.992Zm8.168-2.044h1.382v10.104h-2.431v-9.055a1.048 1.048 0 0 1 1.05-1.05Zm3.536 0h1.317a.935.935 0 0 1 .933.931h.037c.611-.84 1.7-1.259 2.76-1.259a4.054 4.054 0 0 1 2.888 1.259c.095.088.18.185.254.29.787 1.095.805 2.354.805 3.649v5.234h-2.431v-4.752c0-.783 0-1.788-.42-2.463a1.949 1.949 0 0 0-1.608-.838 2.043 2.043 0 0 0-1.7.893c-.44.694-.407 1.788-.407 2.59v3.29a1.282 1.282 0 0 1-1.282 1.28h-1.15l.004-10.104Zm-40.79 2.794c-1.178-2.57-4.307-3.864-6.93-2.672-2.76 1.258-3.862 4.473-2.617 7.188a5.325 5.325 0 0 0 2.991 2.766 5.34 5.34 0 0 0 4.076-.153c1.946-.889 3.26-3.07 3.069-4.97l-2.324 1.06a.321.321 0 0 0-.163.179 3.202 3.202 0 0 1-1.652 1.612 2.777 2.777 0 0 1-3.135-.55c-.167-.125-.815-.688-1.02-2.034a2.878 2.878 0 0 1 .38-1.729c.06-.11.133-.215.214-.311 1.235-1.45 3.283-1.552 4.484-.275l-3.027 1.381.897 1.959 5.138-2.343a8.093 8.093 0 0 0-.363-1.1" fill="#270089"/><path d="M36.264 10.104h-2.33a1.488 1.488 0 0 0-1.339.842l-6.15 12.756v-.014l-1.631 3.398v.014l-1.63 3.396-8.186-16.988h2.332a1.49 1.49 0 0 1 1.341.842l5.336 11.02 1.63-3.4-4.304-8.897A5.238 5.238 0 0 0 19.4 10.91a5.256 5.256 0 0 0-2.79-.806h-6.52l1.63 3.404 9.818 20.388h3.273l11.454-23.792Z" fill="url(#a)"/><path d="M125 29V18" stroke="#270089"/><path d="m135.126 18.567 2.585 7.818h.102l2.58-7.819h1.979L138.87 28.5h-2.221l-3.498-9.933h1.975Zm8.554 9.933v-9.933h6.461v1.508h-4.661v2.697h4.326v1.508h-4.326v2.711h4.7V28.5h-6.5Zm9.626-9.933 2.585 7.818h.102l2.58-7.819h1.979L157.05 28.5h-2.221l-3.497-9.933h1.974Zm8.67 9.933h-1.921l3.497-9.933h2.222l3.502 9.933h-1.921l-2.653-7.896h-.078l-2.648 7.896Zm.063-3.895h5.238v1.446h-5.238v-1.446Zm14.807-6.038h1.799v6.49c0 .71-.168 1.336-.504 1.876-.333.54-.802.962-1.407 1.266-.605.301-1.311.451-2.119.451-.812 0-1.52-.15-2.125-.45a3.405 3.405 0 0 1-1.406-1.267c-.334-.54-.5-1.165-.5-1.877v-6.49h1.799v6.34c0 .414.091.782.272 1.106.184.323.443.577.776.761.333.181.728.272 1.184.272.455 0 .85-.09 1.183-.272.336-.184.595-.438.776-.761.181-.324.272-.692.272-1.106v-6.34Zm3.755 9.933v-9.933h1.8v8.424h4.375V28.5h-6.175Zm6.033-8.425v-1.508h7.925v1.508h-3.07V28.5h-1.785v-8.425h-3.07Zm14.931 8.425-2.803-9.933h1.935l1.79 7.3h.092l1.911-7.3h1.761l1.916 7.304h.087l1.79-7.304h1.935l-2.803 9.933H207.4l-1.988-6.97h-.078l-1.993 6.97h-1.776Zm12.004 0h-1.921l3.497-9.933h2.222l3.502 9.933h-1.921l-2.653-7.896h-.078l-2.648 7.896Zm.063-3.895h5.238v1.446h-5.238v-1.446Zm8.545 3.895v-9.933h1.799v8.424h4.375V28.5h-6.174Zm7.736 0v-9.933h1.8v8.424h4.375V28.5h-6.175Zm7.736 0v-9.933h6.461v1.508h-4.661v2.697h4.326v1.508h-4.326v2.711h4.7V28.5h-6.5Zm7.86-8.425v-1.508h7.926v1.508h-3.07V28.5h-1.785v-8.425h-3.071Z" fill="#28008C"/><defs><linearGradient id="a" x1="10.089" y1="22" x2="36.264" y2="22" gradientUnits="userSpaceOnUse"><stop offset=".13" style="stop-color:#270089;stop-opacity:1"/><stop offset=".6" style="stop-color:#00bed6;stop-opacity:1"/><stop offset="1" style="stop-color:#80bc00;stop-opacity:1"/></linearGradient></defs></svg>