<svg width="101" height="20" viewBox="0 0 101 20" fill="none" xmlns="http://www.w3.org/2000/svg">
<g id="logo" clip-path="url(#clip0_7346_8828)">
<g id="Group">
<g id="Group_2">
<g id="Group_3">
<path id="Vector" fill-rule="evenodd" clip-rule="evenodd" d="M50.7215 16.3945H53.5382V3.41467H50.7215V16.3945ZM55.3437 16.3945H58.1605V3.41467H55.3437V16.3945ZM30.9102 12.0679C31.2139 12.297 31.3657 12.6163 31.3657 13.0256C31.3657 13.3862 31.225 13.666 30.9435 13.865C30.662 14.0641 30.2805 14.1636 29.799 14.1636C29.0435 14.1636 28.4972 14.0171 28.1601 13.7242C27.8231 13.4275 27.6545 12.9674 27.6545 12.344H24.7212C24.7212 13.1327 24.923 13.8312 25.3268 14.4397C25.7305 15.0443 26.3305 15.5213 27.1268 15.8706C27.9231 16.2199 28.8138 16.3945 29.799 16.3945C31.1916 16.3945 32.2879 16.0941 33.0879 15.4931C33.888 14.8922 34.288 14.0641 34.288 13.0087C34.288 11.6905 33.6324 10.6557 32.3213 9.90459C31.7842 9.59662 31.0953 9.31682 30.2546 9.06519C29.4175 8.8098 28.8324 8.5638 28.499 8.32719C28.1657 8.08682 27.999 7.82204 27.999 7.53285C27.999 7.19484 28.149 6.91879 28.449 6.70471C28.7527 6.48687 29.1657 6.37796 29.6879 6.37796C30.2064 6.37796 30.6157 6.50565 30.9157 6.76105C31.2194 7.01643 31.3713 7.37698 31.3713 7.84269H34.288C34.288 7.11408 34.0954 6.4681 33.7102 5.90474C33.3287 5.33762 32.7916 4.90195 32.0991 4.59773C31.4102 4.28976 30.6287 4.13578 29.7546 4.13578C28.862 4.13578 28.0564 4.27662 27.3379 4.5583C26.6231 4.83998 26.0694 5.23433 25.6768 5.74136C25.2842 6.24463 25.0879 6.82677 25.0879 7.48778C25.0879 8.81356 25.8749 9.85765 27.449 10.6201C27.9305 10.8529 28.5509 11.0952 29.3101 11.3468C30.0731 11.5984 30.6064 11.8388 30.9102 12.0679ZM76.0328 16.3945V12.1975H77.8996C79.3773 12.1975 80.5384 11.8426 81.3828 11.1327C82.2311 10.4191 82.6552 9.46706 82.6552 8.27648C82.6552 7.47275 82.4589 6.75352 82.0663 6.1188C81.6773 5.48408 81.1255 4.99584 80.4107 4.65407C79.6959 4.30854 78.8755 4.13578 77.9495 4.13578H73.1051V16.3945H76.0328ZM38.9158 7.02018V4.85688H36.1046V7.02018H34.9546V8.99758H36.1046V13.5721C36.1046 14.5223 36.3343 15.2302 36.7935 15.696C37.2565 16.1617 37.9713 16.3945 38.938 16.3945C39.4899 16.3945 40.0177 16.3119 40.5214 16.1466V14.1129C40.3325 14.1467 40.0991 14.1636 39.8213 14.1636C39.4621 14.1636 39.2213 14.096 39.0991 13.9608C38.9769 13.8218 38.9158 13.5796 38.9158 13.2341V8.99758H40.3991V7.02018H38.9158ZM77.9495 9.90459H76.0328V6.42866H77.9828C78.5088 6.43241 78.9237 6.6033 79.2274 6.94132C79.5348 7.27934 79.6885 7.73003 79.6885 8.29339C79.6885 8.80416 79.5403 9.20039 79.244 9.48207C78.9476 9.76375 78.5161 9.90459 77.9495 9.90459ZM42.338 15.1551C43.1936 15.9814 44.3121 16.3945 45.6936 16.3945C46.4344 16.3945 47.1251 16.2556 47.7659 15.9776C48.4066 15.6997 48.9029 15.326 49.2548 14.8566L47.9714 13.3805C47.4714 13.9251 46.777 14.1974 45.8881 14.1974C45.3474 14.1974 44.9066 14.0716 44.5658 13.82C44.2288 13.5646 44.0103 13.2153 43.9102 12.7721H49.4937V11.6397C49.4937 10.1863 49.127 9.05393 48.3937 8.24269C47.6603 7.42769 46.6603 7.02018 45.3937 7.02018C44.4936 7.02018 43.7158 7.2136 43.0603 7.60045C42.4047 7.98729 41.9065 8.53563 41.5657 9.24547C41.2251 9.95155 41.0547 10.7665 41.0547 11.6905V11.9271C41.0547 13.2528 41.4825 14.3289 42.338 15.1551ZM64.6328 15.4086C64.7105 15.8406 64.7994 16.1692 64.8994 16.3945H67.7106V16.2481C67.4661 15.8011 67.3383 15.1551 67.3273 14.3101V10.237C67.3087 9.23796 66.9661 8.45301 66.2994 7.88214C65.6328 7.3075 64.7235 7.02018 63.5716 7.02018C62.4234 7.02018 61.479 7.2906 60.7382 7.83142C59.9975 8.36849 59.6272 9.06894 59.6272 9.93277H62.4327C62.4327 9.31682 62.766 9.00885 63.4327 9.00885C64.1512 9.00885 64.5105 9.39945 64.5105 10.1806V10.6257H63.6438C62.266 10.6257 61.216 10.8811 60.4937 11.3919C59.7715 11.8989 59.4104 12.6482 59.4104 13.6397C59.4104 14.4321 59.7067 15.0894 60.2994 15.6115C60.8956 16.1335 61.6179 16.3945 62.4661 16.3945C63.3957 16.3945 64.118 16.0659 64.6328 15.4086ZM88.8108 15.4086C88.8886 15.8406 88.9774 16.1692 89.0774 16.3945H91.8886V16.2481C91.6441 15.8011 91.5163 15.1551 91.5053 14.3101V10.237C91.4867 9.23796 91.1441 8.45301 90.4774 7.88214C89.8108 7.3075 88.9015 7.02018 87.7496 7.02018C86.6015 7.02018 85.657 7.2906 84.9162 7.83142C84.1756 8.36849 83.8052 9.06894 83.8052 9.93277H86.6108C86.6108 9.31682 86.9441 9.00885 87.6107 9.00885C88.3292 9.00885 88.6885 9.39945 88.6885 10.1806V10.6257H87.8218C86.444 10.6257 85.394 10.8811 84.6718 11.3919C83.9495 11.8989 83.5884 12.6482 83.5884 13.6397C83.5884 14.4321 83.8848 15.0894 84.4774 15.6115C85.0737 16.1335 85.7959 16.3945 86.6441 16.3945C87.5738 16.3945 88.296 16.0659 88.8108 15.4086ZM97.9942 7.02018L96.4941 12.2313L95.0663 7.02018H92.0664L95.1997 16.372L94.9775 16.9861C94.8775 17.2903 94.722 17.5006 94.5109 17.617C94.3035 17.7335 94.0034 17.7917 93.6108 17.7917H93.2441V19.8311C93.6479 19.9437 94.0331 20 94.3997 20C95.7219 20 96.6441 19.401 97.1663 18.2029L97.3275 17.8142L101 7.02018H97.9942ZM43.9102 10.9862C44.0658 9.80694 44.5547 9.21729 45.3769 9.21729C45.8214 9.21729 46.1621 9.3525 46.3993 9.62292C46.64 9.88957 46.7548 10.2651 46.7436 10.7496V10.9862H43.9102ZM64.0105 14.1355C63.7809 14.2894 63.492 14.3664 63.1438 14.3664C62.8772 14.3664 62.6568 14.2857 62.4827 14.1242C62.3123 13.9627 62.2272 13.7524 62.2272 13.4932C62.2272 12.5956 62.7161 12.1468 63.6939 12.1468H64.5105V13.6171C64.4105 13.8087 64.2439 13.9815 64.0105 14.1355ZM88.1886 14.1355C87.9589 14.2894 87.67 14.3664 87.3218 14.3664C87.0552 14.3664 86.8348 14.2857 86.6607 14.1242C86.4904 13.9627 86.4052 13.7524 86.4052 13.4932C86.4052 12.5956 86.8941 12.1468 87.8719 12.1468H88.6885V13.6171C88.5885 13.8087 88.4219 13.9815 88.1886 14.1355Z" fill="white"/>
</g>
</g>
<g id="Group_4">
<g id="Group_5">
<path id="Vector_2" fill-rule="evenodd" clip-rule="evenodd" d="M8.74877 18.195C9.17363 17.9151 9.59888 17.6081 10.0234 17.275C10.0227 17.2743 10.0221 17.2735 10.0214 17.2728C10.0516 17.2508 10.0842 17.2266 10.1191 17.2C10.163 17.1652 10.2078 17.1293 10.2535 17.0922L10.2557 17.0935C10.3521 17.0169 10.4618 16.927 10.5847 16.8241L10.5808 16.822C11.7223 15.8624 12.8005 14.764 13.8012 13.5409C14.0446 13.2435 14.2809 12.9413 14.5101 12.6346C15.1584 13.4214 15.6729 14.1674 16.0461 14.8622C15.1782 16.1477 13.9388 17.1413 12.4921 17.7115C12.4868 17.7137 12.4817 17.7158 12.4765 17.7179C14.0358 18.332 15.3343 18.4776 16.0379 18.1167C16.19 18.0387 16.3202 17.9353 16.4202 17.813C16.5203 17.6909 16.5956 17.5431 16.6414 17.3792C16.8076 16.7846 16.5944 15.8832 16.0461 14.8622C16.6806 13.9222 17.0976 12.854 17.2666 11.7351C18.8776 14.1843 19.3232 16.64 18.3683 17.807C17.3927 18.9995 14.8037 19.0372 11.9876 17.901C11.866 17.9402 11.7578 17.9691 11.6629 17.9876C11.655 17.9891 11.6469 17.9906 11.6385 17.9917C11.2505 18.0945 10.8549 18.167 10.4552 18.2083C9.88753 18.267 9.31518 18.2624 8.74877 18.195ZM7.20498 3.39699C4.85314 2.39015 2.78879 2.12267 1.47408 2.65444C1.07654 2.81524 0.740094 3.05598 0.495949 3.35437C-0.540714 4.62135 0.0853278 7.36226 2.0231 10.0425C1.99592 10.3857 1.99263 10.7489 2.01862 11.1333C0.278759 14.7124 0.158332 18.1348 1.7279 19.4041C3.11294 20.5241 5.95652 20.0345 8.74877 18.195C7.50071 18.0462 6.30919 17.5946 5.27895 16.88C5.65534 16.6754 6.04276 16.4361 6.43987 16.1629C6.44455 16.1615 6.44873 16.1601 6.45242 16.1587C6.7128 15.9777 7.06454 15.7265 7.4917 15.378C7.53614 15.3426 7.58009 15.3072 7.62354 15.2718C7.70025 15.2092 7.77445 15.148 7.84613 15.0881C9.05038 14.0766 10.2138 12.8871 11.3204 11.5346C11.6542 11.1266 11.9754 10.7119 12.2837 10.2909C12.8359 10.5175 13.2975 10.8262 13.6686 11.2168C14.0396 11.6074 14.3201 12.08 14.5101 12.6346C14.5949 12.053 14.7717 11.5584 15.0407 11.1509C15.3097 10.7434 15.6707 10.4229 16.1239 10.1895C16.5481 10.7066 16.9295 11.2225 17.2666 11.7351C17.3621 11.1035 17.3774 10.4627 17.3123 9.82769C17.2637 9.35293 17.1705 8.88385 17.0337 8.4266C18.5837 5.02501 18.618 1.80956 17.1171 0.59595C15.4253 -0.772219 11.7518 0.278336 8.35584 3.10153C7.9652 3.17031 7.58042 3.26909 7.20498 3.39699ZM4.32446 5.15995C5.14147 4.36701 6.1255 3.76476 7.20498 3.39699C7.34809 3.45826 7.49193 3.5221 7.63645 3.58847C7.64625 3.59403 7.65627 3.59969 7.66651 3.60543C7.87215 3.70107 8.05573 3.78744 8.21726 3.86454C8.33833 3.92486 8.45899 3.9867 8.57926 4.05006L8.57793 4.05172C9.9458 4.76836 11.2916 5.66034 12.5954 6.71467C13.0402 7.07434 13.4712 7.44663 13.8877 7.83091C13.8022 8.43566 13.6258 8.94304 13.3584 9.35304C13.0911 9.76304 12.7329 10.0757 12.2837 10.2909C11.7939 9.83585 11.2836 9.39372 10.7538 8.96527C9.21925 7.72434 7.6829 6.71408 6.1708 5.95159L6.17208 5.95015C6.12631 5.92724 6.08017 5.90438 6.03366 5.88156C5.95697 5.84394 5.87992 5.80676 5.80251 5.77005C5.32872 5.542 4.85059 5.34046 4.37639 5.17754C4.35891 5.17182 4.34167 5.16585 4.32446 5.15995ZM4.32446 5.15995C3.15511 6.29486 2.38016 7.7693 2.11016 9.36825C2.10172 9.41493 2.09373 9.46203 2.08618 9.50955C0.952751 7.93031 0.430579 6.52496 0.665374 5.6855C0.711224 5.52156 0.786525 5.37382 0.886548 5.25159C1.37467 4.65502 2.74836 4.61841 4.32446 5.15995ZM6.1708 5.95159C6.10429 5.91807 6.0381 5.88517 5.97221 5.85293C6.03824 5.88566 6.10418 5.91886 6.16998 5.95252L6.1708 5.95159ZM15.128 5.23229C16.0186 6.124 16.6733 7.22133 17.0337 8.4266C16.7678 9.01031 16.4641 9.59859 16.1239 10.1895C15.5991 9.96279 15.1504 9.6529 14.7777 9.25981C14.405 8.86672 14.1083 8.39042 13.8877 7.83091C14.4085 6.91966 14.8233 6.0506 15.128 5.23229ZM15.128 5.23229C15.726 3.6262 15.8486 2.2755 15.4673 1.49165C15.3696 1.29064 15.236 1.11942 15.076 0.990037C14.0946 0.196391 11.6511 1.03507 9.22291 2.99899C9.11534 3.00558 9.0079 3.01441 8.90071 3.0255C8.84142 3.03163 8.78224 3.03844 8.72313 3.04593C8.89965 3.02376 9.06753 3.00919 9.22125 3.00032L9.22291 2.99899C11.4243 2.86428 13.5755 3.67789 15.128 5.23229ZM7.84613 15.0881C7.72857 15.1857 7.61197 15.2814 7.49567 15.3748C7.60597 15.2847 7.7213 15.1882 7.84136 15.0847L7.84613 15.0881ZM5.27895 16.88C3.77981 17.6945 2.36584 17.875 1.70056 17.3371C0.811791 16.6182 0.984233 14.4118 2.11889 11.9768C2.13615 12.0792 2.15542 12.183 2.17677 12.2881C2.19709 12.3627 2.21792 12.436 2.23929 12.5078C2.69002 14.2758 3.76555 15.8301 5.27895 16.88ZM10.5808 16.822C10.4997 16.8901 10.4185 16.9574 10.3371 17.0239C10.3724 16.9947 10.4082 16.965 10.4445 16.9346C10.4901 16.8965 10.535 16.8586 10.5793 16.8211L10.5808 16.822Z" fill="white"/>
</g>
</g>
</g>
</g>
<defs>
<clipPath id="clip0_7346_8828">
<rect width="101" height="20" fill="white"/>
</clipPath>
</defs>
</svg>
