  <svg
    width="238"
    height="220"
    viewBox="0 0 238 220"
    fill="none"
    xmlns="http://www.w3.org/2000/svg"
  >
    <path
      d="M59.4135 180.309C114.765 195.823 188.749 257.745 218.881 186.253C234.467 152.931 239.387 99.119 236.204 63.8529C232.602 26.7695 220.881 8.2476 193.526 3.58936C139.08 -4.10031 38.4395 -6.02868 11.4503 68.3762C-3.09577 104.309 -2.48472 136.909 6.04613 152.621C14.9817 169.985 31.845 170.469 59.4135 180.309Z"
      fill="#EAF4FE"
    />
    <path
      d="M177.258 32.9518L188.908 21.3181L194.574 72.5032L143.413 66.8212L158.276 51.9577C137.366 32.5312 104.615 32.9518 84.2759 53.2829C74.1976 63.3692 68.6506 76.7725 68.6506 91.0171C68.6506 91.1202 68.6585 91.2234 68.6585 91.3266H41.7804C41.7804 91.2155 41.7725 91.1202 41.7725 91.0171C41.7725 69.5908 50.1208 49.4342 65.2779 34.277C96.0842 3.47074 145.881 3.08189 177.258 32.9518Z"
      fill="#28008C"
    />
    <path
      d="M167.696 91.3339C167.616 105.475 162.085 118.76 152.078 128.766C131.747 149.106 98.9809 149.518 78.0704 130.1L92.9339 115.228L41.7646 109.554L47.4307 160.739L59.0723 149.106C90.4579 178.967 140.262 178.579 171.069 147.772C186.154 132.687 194.487 112.641 194.566 91.3339H167.696Z"
      fill="#7EB3FF"
    />
    <path
      d="M108.599 67.5908L117.598 65.3212C126.446 63.0913 136.548 69.7334 141.556 81.8195C147.277 95.6275 144.175 111.301 134.62 116.832L125.621 119.101C135.175 113.57 138.278 97.8972 132.549 84.0891C127.549 72.0031 117.447 65.3609 108.599 67.5908Z"
      fill="#FFC910"
    />
    <path
      d="M130.93 118.339L121.931 120.609C123.193 120.291 124.431 119.792 125.629 119.101L134.628 116.832C133.43 117.522 132.2 118.022 130.93 118.339Z"
      fill="#FFC910"
    />
    <path
      d="M108.599 67.5911L117.598 65.3215C116.336 65.639 115.09 66.1389 113.9 66.8293L104.901 69.1068C106.099 68.4085 107.337 67.9086 108.599 67.5911Z"
      fill="#FFAB01"
    />
    <path
      d="M130.93 118.339L121.931 120.609C113.083 122.839 102.973 116.197 97.9652 104.119C92.2436 90.3106 95.3464 74.6376 104.901 69.1065L113.9 66.8369C104.345 72.368 101.243 88.041 106.964 101.849C111.98 113.919 122.082 120.569 130.93 118.339Z"
      fill="#FFAB01"
    />
    <path
      d="M132.311 123.831L123.311 126.101C112.63 128.791 100.425 120.776 94.3859 106.19C87.474 89.5252 91.2196 70.5986 102.758 63.9247L111.757 61.6551C100.227 68.3369 96.473 87.2556 103.385 103.92C109.432 118.506 121.629 126.529 132.311 123.831Z"
      fill="#F99B0F"
    />
    <path
      d="M111.757 61.6468C123.288 54.965 138.238 63.0673 145.142 79.7323C152.054 96.3972 148.309 115.324 136.778 121.998C125.24 128.672 110.289 120.577 103.385 103.912C96.4729 87.2473 100.226 68.3287 111.757 61.6468ZM134.628 116.832C144.182 111.3 147.285 95.6274 141.563 81.8193C135.842 68.0113 123.454 61.3056 113.908 66.8288C104.353 72.36 101.25 88.033 106.972 101.841C112.685 115.649 125.073 122.355 134.628 116.832Z"
      fill="#FFC910"
    />
    <path
      d="M113.9 66.829C123.454 61.2979 135.834 68.0114 141.555 81.8195C147.277 95.6276 144.174 111.301 134.62 116.832C125.073 122.363 112.685 115.649 106.964 101.849C101.242 88.0331 104.353 72.3602 113.9 66.829Z"
      fill="#FFAB01"
    />
    <path
      d="M107.218 62.0993C110.218 61.3454 113.218 60.5835 116.217 59.8297C114.686 60.2106 113.194 60.8137 111.757 61.6549L102.758 63.9245C104.195 63.0833 105.694 62.4802 107.218 62.0993Z"
      fill="#EE8F01"
    />
    <path
      d="M113.9 66.829C112.281 67.7654 110.853 68.9955 109.623 70.4636C110.742 69.2494 112.004 68.2098 113.408 67.3925C122.963 61.8613 135.342 68.5669 141.064 82.375C145.817 93.8421 144.476 106.603 138.405 113.761C144.897 106.722 146.436 93.5961 141.556 81.8195C135.834 68.0114 123.455 61.2979 113.9 66.829Z"
      fill="#F99B0F"
    />
    <path
      d="M123.311 126.101L132.31 123.831C127.097 125.148 121.518 123.902 116.463 120.585L108.146 123.291C113.019 126.283 118.328 127.355 123.311 126.101Z"
      fill="#EE8F01"
    />
    <path
      d="M117.701 72.8995L119.423 77.0736C120.709 76.661 121.955 76.8832 123.193 77.7402C124.415 78.5893 125.486 79.986 126.391 81.9223L123.78 83.438C123.256 82.3429 122.629 81.6049 121.867 81.2161C121.113 80.8351 120.352 80.8669 119.582 81.3113C118.756 81.7874 118.257 82.5334 118.066 83.5571C117.876 84.5728 118.034 85.6918 118.542 86.9059C118.725 87.3503 118.931 87.7312 119.169 88.0487C119.407 88.3661 119.677 88.62 119.987 88.8184C120.598 89.2231 121.582 89.2708 122.923 88.9692C123.724 88.7788 124.343 88.6835 124.796 88.6597C126.367 88.5804 127.756 88.993 128.962 89.8977C130.168 90.8023 131.144 92.1593 131.89 93.9607C132.834 96.2542 133.231 98.4285 133.072 100.5C132.914 102.571 132.239 104.11 131.041 105.126L133.12 110.15L130.692 111.554L128.692 106.729C127.113 107.285 125.597 107.063 124.113 106.055C122.637 105.055 121.423 103.396 120.447 101.087L122.962 99.6347C123.661 101.158 124.446 102.15 125.319 102.619C126.2 103.087 127.152 103.015 128.192 102.412C129.144 101.865 129.732 101.008 129.946 99.8411C130.168 98.6825 129.985 97.3969 129.406 96.0002C129.208 95.5003 128.978 95.0717 128.74 94.6908C128.501 94.302 128.248 94.0004 127.994 93.7782C127.16 93.0164 125.978 92.7942 124.454 93.1037C124.2 93.1513 124.018 93.191 123.891 93.2069C121.986 93.5481 120.391 93.3576 119.106 92.6196C117.836 91.8895 116.804 90.5643 116.011 88.6518C115.146 86.5726 114.797 84.6205 114.971 82.8032C115.146 80.9859 115.812 79.5337 116.971 78.4386L115.257 74.3041L117.701 72.8995Z"
      fill="#F99B0F"
    />
    <path
      d="M119.265 72.2648L120.995 76.439C122.272 76.0263 123.526 76.2485 124.756 77.0977C125.986 77.9468 127.049 79.3434 127.954 81.2877L125.351 82.8034C124.835 81.7083 124.193 80.9703 123.439 80.5893C122.685 80.2084 121.923 80.2402 121.161 80.6846C120.336 81.1607 119.82 81.9146 119.638 82.9304C119.447 83.9461 119.606 85.0651 120.114 86.2792C120.296 86.7236 120.51 87.1045 120.741 87.422C120.979 87.7394 121.248 87.9933 121.55 88.1917C122.169 88.5964 123.153 88.6441 124.494 88.3346C125.296 88.152 125.915 88.0489 126.367 88.0251C127.946 87.9457 129.327 88.3584 130.533 89.271C131.739 90.1756 132.716 91.5247 133.469 93.334C134.422 95.6195 134.811 97.8018 134.66 99.873C134.501 101.936 133.827 103.484 132.628 104.5L134.707 109.515L132.279 110.919L130.279 106.103C128.708 106.658 127.184 106.436 125.7 105.428C124.224 104.428 123.002 102.77 122.034 100.46L124.542 99.008C125.248 100.532 126.034 101.532 126.907 101.992C127.78 102.46 128.74 102.389 129.771 101.793C130.724 101.238 131.311 100.381 131.533 99.2223C131.755 98.0637 131.565 96.7781 130.986 95.3814C130.779 94.8894 130.565 94.453 130.319 94.0721C130.081 93.6911 129.827 93.3896 129.581 93.1595C128.74 92.3976 127.557 92.1754 126.042 92.4849C125.788 92.5325 125.605 92.5722 125.478 92.5881C123.574 92.9373 121.971 92.7389 120.693 92.0008C119.415 91.2628 118.384 89.9455 117.598 88.033C116.733 85.9539 116.392 84.0096 116.559 82.1844C116.725 80.3751 117.4 78.9149 118.558 77.8198L116.844 73.6774L119.265 72.2648Z"
      fill="#FFC910"
    />
    <path
      d="M143.047 112.721C139.421 113.634 132.731 116.887 131.326 122.45C129.223 130.798 133.429 143.067 126.771 155.066C124.645 158.883 163.561 164.033 163.561 164.033L171.068 121.815C171.068 121.815 161.688 112.65 159.776 112.038C155.8 110.761 150.301 110.896 143.047 112.721Z"
      fill="#4E99FF"
    />
    <path
      d="M171.132 121.847C172.481 125.219 175.901 145.289 172.092 150.018C171.656 150.566 174.068 151.415 173.632 153.907C173.56 154.327 172.83 156.319 172.83 156.319L169.719 157.129L160.323 151.78L162.125 149.59L162.982 149.606C162.982 149.606 163.783 148.86 163.561 147.931C163.339 147.011 165.72 145.519 169.307 129.941C170.362 125.354 170.838 121.093 171.132 121.847Z"
      fill="#28008C"
    />
    <path
      d="M167.497 149.066L164.72 148.455L163.593 148.28C163.585 149.042 162.974 149.614 162.974 149.614L165.133 149.685L167.656 150.225L170.711 151.963L167.497 149.066Z"
      fill="#28008C"
    />
    <path
      d="M163.521 151.661C163.521 151.661 165.672 151.629 167.497 152.764C168.894 153.621 170.171 155.494 168.894 156.502C167.616 157.51 165.64 158.454 165.64 158.454C165.64 158.454 160.744 158.581 163.521 151.661Z"
      fill="#C4D1E1"
    />
    <path
      d="M168.894 156.565L167.584 156.288C167.584 156.288 163.077 155.883 162.434 156.224C161.791 156.581 159.72 157.978 159.72 157.978L159.292 158.367C159.292 158.367 160.299 158.994 161.656 158.049C163.013 157.097 163.132 157.827 163.132 157.827L162.902 159.025L162.926 160.557L162.712 161.208C162.712 161.208 162.521 161.557 162.672 161.692C163.101 162.065 163.521 161.882 163.521 161.882L164.894 159.486L165.267 162.089C165.267 162.089 165.458 162.438 165.886 162.533C166.283 162.62 166.291 162.509 166.291 162.509L166.6 161.851C166.632 161.985 166.703 162.168 166.878 162.303C167.219 162.573 167.687 162.541 167.687 162.541L167.56 159.795L168.124 161.192C168.124 161.192 168.322 161.533 168.735 161.636C169.195 161.739 169.314 161.779 169.314 161.779L168.894 156.565Z"
      fill="#E4EEF3"
    />
    <path
      d="M145.539 145.828C145.539 145.828 148.809 154.121 156.673 156.335C158.038 156.716 158.871 158.184 158.212 158.66C157.371 159.263 156.22 159.398 154.244 159.39C150.134 159.382 144.547 158.105 140.667 154.359C134.937 148.812 133.136 146.296 133.715 143.511C134.294 140.717 145.539 145.828 145.539 145.828Z"
      fill="#28008C"
    />
    <path
      d="M132.445 119.657C130.779 122.394 129.819 126.791 129.827 133.076C129.843 137.948 134.041 145.916 134.683 148.368C134.794 148.773 135.048 150.534 135.048 150.534L139.699 155.097L149.039 148.773L146.198 144.416L145.349 144.503C145.349 144.503 144.817 142.099 144.952 141.162C145.103 140.226 142.365 127.672 141.024 119.625C140.246 114.99 134.096 116.943 132.445 119.657Z"
      fill="#28008C"
    />
    <path
      d="M140.802 144.344L143.516 143.503L144.619 143.225C144.69 143.987 145.349 144.503 145.349 144.503L143.206 144.749L140.731 145.503L137.834 147.487L140.802 144.344Z"
      fill="#28008C"
    />
    <path
      d="M156.078 156.311L160.831 155.01C160.831 155.01 162.18 156.819 161.926 157.264C161.664 157.716 161.926 160.382 161.926 160.382L159.617 162.342L157.744 161.715C157.744 161.715 157.617 160.898 158.252 160.819C158.895 160.739 157.823 160.271 157.482 160.081C157.149 159.898 154.395 158.478 156.078 156.311Z"
      fill="#28008C"
    />
    <path
      d="M148.793 112.316C148.261 113.824 149.071 115.49 150.578 116.022L153.277 116.966C154.784 117.498 156.451 116.697 156.983 115.189L159.387 108.332C159.911 106.825 159.109 105.158 157.601 104.626L154.903 103.682C153.396 103.15 151.729 103.952 151.197 105.46L148.793 112.316Z"
      fill="#E4EEF3"
    />
    <path
      d="M160.561 118.339C160.292 119.339 159.26 119.918 158.26 119.649L150.118 117.411C149.118 117.133 148.531 116.101 148.809 115.101L152.134 103.039C152.411 102.047 153.443 101.452 154.443 101.738L162.585 103.976C163.585 104.253 164.172 105.285 163.894 106.285L160.561 118.339Z"
      fill="#E9D6B8"
    />
    <path
      d="M163.212 108.777C163.212 108.777 164.624 107.912 165.029 107.246C165.228 106.912 165.259 105.444 164.497 104.666C163.736 103.889 162.712 104.658 162.712 104.658C162.712 104.658 163.934 105.865 163.926 106.19C163.918 106.508 163.212 108.777 163.212 108.777Z"
      fill="#163F59"
    />
    <path
      d="M149.801 108.237C149.801 108.237 149.848 103.262 150.452 101.968C151.047 100.667 151.459 99.7699 153.166 100.079C155.705 100.54 155.594 101.071 157.006 100.651C158.419 100.23 161.085 99.008 161.887 99.0318C163.212 99.0715 165.045 100.024 164.474 102.381C164.053 104.119 165.021 104.841 164.974 104.896C164.823 105.087 164.315 105.158 163.418 105.333C160.847 105.841 159.419 105.69 157.816 104.761C156.205 103.833 153.245 101.96 152.515 103.135C151.785 104.309 150.856 108.277 150.618 108.531C150.388 108.809 150.047 108.547 149.801 108.237Z"
      fill="#194866"
    />
    <path
      d="M151.372 112.562C151.285 112.895 150.935 113.094 150.602 112.998L148.84 112.514C148.507 112.427 148.317 112.078 148.404 111.745L149.285 108.531C149.38 108.197 149.721 107.999 150.055 108.094L151.816 108.578C152.142 108.666 152.34 109.015 152.245 109.348L151.372 112.562Z"
      fill="#E9D6B8"
    />
    <path
      d="M161.863 115.45C161.768 115.784 161.426 115.982 161.093 115.887L159.331 115.403C158.998 115.308 158.808 114.966 158.895 114.633L159.776 111.419C159.871 111.086 160.212 110.887 160.546 110.983L162.307 111.467C162.641 111.554 162.831 111.903 162.744 112.237L161.863 115.45Z"
      fill="#E9D6B8"
    />
    <path
      d="M150.293 109.515C150.293 109.515 148.991 114.261 148.547 115.848C148.158 117.276 147.864 120.577 155.943 122.807C160.728 124.125 161.522 120.562 161.839 119.403C162.085 118.522 161.815 115.61 161.45 114.967C161.442 114.943 160.911 116.927 160.911 116.927C160.911 116.927 160.45 114.745 158.165 114.118C154.499 113.11 153.07 115.022 151.459 114.546C150.229 114.165 149.848 111.872 150.293 109.515Z"
      fill="#194866"
    />
    <path
      d="M155.8 116.808L158.308 117.498C158.641 117.585 158.982 117.395 159.078 117.061L159.173 116.712L155.459 115.689L155.364 116.038C155.269 116.379 155.467 116.72 155.8 116.808Z"
      fill="#E9D6B8"
    />
    <path
      d="M195.502 164.969C194.344 168.175 174.036 179.968 167.235 179.261L146.722 180.245C129.279 178.111 121.026 151.01 121.026 151.01C121.724 144.201 138.905 154.065 145.031 157.121C154.729 161.961 160.863 162.207 160.863 162.207C167.354 162.866 174.869 157.867 183.067 157.692C192.066 157.51 197.335 159.922 195.502 164.969Z"
      fill="#282723"
    />
    <path
      d="M150.88 161.716C150.88 161.708 150.872 161.7 150.864 161.684V160.835L186.17 160.192L186.186 161.041C186.186 161.041 186.186 161.057 186.186 161.073L186.098 161.232C185.654 161.978 184.845 162.128 183.916 162.144L153.189 162.7C152.261 162.716 151.443 162.597 150.975 161.866L150.88 161.716Z"
      fill="#B6C2C9"
    />
    <path
      d="M159.395 161.708C159.395 161.708 159.403 161.724 159.395 161.732L159.316 161.866C159.173 162.057 158.998 162.2 158.8 162.311L153.428 162.406C152.531 162.422 151.753 162.327 151.301 161.739L151.214 161.613C151.206 161.605 151.198 161.597 151.19 161.589V161.168L159.371 161.025L159.395 161.708Z"
      fill="#D8E5ED"
    />
    <path
      d="M164.157 161.39L181.797 161.073L181.79 160.469L164.141 160.795L164.157 161.39Z"
      fill="#879BA6"
    />
    <path
      d="M159.57 160.644L163.839 143.209C163.95 142.749 164.411 142.368 164.871 142.36L189.638 141.908C190.09 141.9 190.376 142.257 190.265 142.725L185.996 160.16L159.57 160.644Z"
      fill="#B0BFDE"
    />
    <path
      d="M143.587 184.761C146.032 185.181 147.889 182.34 147.889 182.34L154.197 177.372L152.856 174.016L140.564 179.539C140.58 179.539 141.143 184.34 143.587 184.761Z"
      fill="#E9D6B8"
    />
    <path
      d="M147.904 182.15C147.904 182.15 147.912 182.443 147.436 183.737C146.968 185.038 146.389 185.483 145.778 185.665C143.421 186.356 141.722 186.007 136.056 187.102C130.39 188.197 128.692 187.371 127.033 184.761C125.375 182.15 127.097 180.094 129.859 179.88C133.866 179.579 136.088 180.039 138.175 179.721C140.357 179.388 140.492 178.904 141.77 178.111C142.968 177.373 144.079 181.761 142.937 182.777C141.937 183.673 147.055 183.816 147.904 182.15Z"
      fill="#28008C"
    />
    <path
      d="M146.69 184.673C144.341 185.372 142.635 185.022 136.969 186.11C131.303 187.205 129.605 186.379 127.954 183.761C127.176 182.554 127.145 181.475 127.589 180.634C126.343 181.491 125.923 182.991 127.042 184.761C128.7 187.371 130.398 188.197 136.064 187.102C141.73 186.006 143.429 186.364 145.786 185.665C146.254 185.522 146.706 185.221 147.103 184.499C146.96 184.578 146.825 184.634 146.69 184.673Z"
      fill="white"
    />
    <path
      d="M147.897 182.231C147.905 182.174 147.905 182.15 147.905 182.15C147.889 182.182 147.873 182.207 147.848 182.239C147.865 182.239 147.881 182.239 147.897 182.231Z"
      fill="#E9D6B8"
    />
    <path
      d="M135.651 184.189C135.469 184.261 135.31 183.911 135.254 183.435C135.143 182.451 134.929 181.483 134.596 180.515C134.429 180.039 134.437 179.61 134.635 179.555C134.834 179.507 135.159 179.84 135.31 180.309C135.619 181.261 135.834 182.237 135.929 183.197C135.976 183.681 135.834 184.118 135.651 184.189Z"
      fill="white"
    />
    <path
      d="M137.413 183.872C137.215 183.912 137.04 183.578 136.993 183.126C136.882 182.213 136.667 181.293 136.342 180.38C136.183 179.928 136.191 179.539 136.406 179.515C136.62 179.491 136.945 179.825 137.096 180.277C137.405 181.182 137.612 182.094 137.707 182.991C137.747 183.435 137.596 183.832 137.413 183.872Z"
      fill="white"
    />
    <path
      d="M139.254 183.792C139.056 183.816 138.85 183.467 138.786 182.999C138.635 182.055 138.381 181.11 138.016 180.166C137.842 179.698 137.842 179.309 138.064 179.301C138.278 179.293 138.627 179.658 138.802 180.118C139.159 181.055 139.397 181.991 139.532 182.92C139.588 183.372 139.453 183.769 139.254 183.792Z"
      fill="white"
    />
    <path
      d="M144.016 176.65C144.016 176.65 187.4 158.819 189.876 158.787C198.256 158.708 196.336 167.191 192.09 171.175C187.075 175.881 148.983 184.491 148.983 184.491L144.016 176.65Z"
      fill="#323B31"
    />
    <path
      d="M161.228 179.745L149.388 168.516L154.427 163.517L167.37 177.11L161.228 179.745Z"
      fill="#E9D6B8"
    />
    <path
      d="M163.68 170.921C163.68 170.921 133.54 143.297 131.509 142.471C124.637 139.678 120.367 147.273 120.613 149.899C120.923 153.304 151.546 180.975 151.546 180.975L163.68 170.921Z"
      fill="#3C463B"
    />
    <path
      d="M181.543 180.626C182.25 181.277 182.369 183.189 182.369 183.189C182.369 183.189 172.314 186.99 168.775 187.062C167.862 187.086 166.212 186.713 164.625 186.276C164.363 186.205 163.744 185.514 163.482 185.435C162.998 185.292 162.887 185.76 162.482 185.633C161.411 185.292 160.649 184.999 160.617 184.951C158.49 180.436 159.212 178.206 159.212 178.206C159.212 178.206 163.831 179.531 163.037 178.491C161.347 176.277 166.188 174.016 167.267 175.19C171.576 179.912 179.496 178.745 181.543 180.626Z"
      fill="#28008C"
    />
    <path
      d="M182.099 181.562C179.012 182.792 172.513 185.332 171.219 185.419C165.926 185.792 162.228 183.911 159.752 182.808C159.974 183.451 160.252 184.165 160.617 184.951C160.649 185.006 161.411 185.292 162.482 185.633C162.895 185.768 163.006 185.3 163.482 185.435C163.744 185.514 164.355 186.205 164.625 186.276C166.212 186.72 167.862 187.086 168.775 187.062C172.314 186.99 182.369 183.189 182.369 183.189C182.369 183.189 182.345 182.316 182.099 181.562Z"
      fill="white"
    />
    <path
      d="M174.989 178.634C175.084 178.809 174.687 179.015 174.124 179.134C172.981 179.364 171.838 179.706 170.727 180.158C170.18 180.388 169.68 180.436 169.6 180.245C169.529 180.047 169.91 179.69 170.45 179.468C171.553 179.031 172.679 178.698 173.806 178.476C174.37 178.373 174.901 178.46 174.989 178.634Z"
      fill="white"
    />
    <path
      d="M172.743 177.833C172.822 178.015 172.441 178.261 171.894 178.42C170.775 178.745 169.679 179.174 168.608 179.713C168.084 179.975 167.6 180.055 167.529 179.856C167.458 179.658 167.823 179.253 168.346 178.999C169.41 178.475 170.497 178.063 171.6 177.753C172.14 177.602 172.647 177.658 172.743 177.833Z"
      fill="white"
    />
    <path
      d="M170.561 177.134C170.64 177.325 170.267 177.61 169.735 177.809C168.656 178.222 167.593 178.729 166.569 179.348C166.061 179.65 165.601 179.761 165.529 179.555C165.466 179.348 165.807 178.912 166.315 178.61C167.339 178.007 168.394 177.507 169.457 177.118C169.981 176.92 170.481 176.944 170.561 177.134Z"
      fill="white"
    />
  </svg>