<svg width="65" height="66" viewBox="0 0 65 66" fill="none" xmlns="http://www.w3.org/2000/svg">
    <path fill-rule="evenodd" clip-rule="evenodd"
        d="M31.549 3.38075C32.1622 3.15083 32.8378 3.15083 33.451 3.38075L55.1176 11.5058C56.1747 11.9022 56.875 12.9127 56.875 14.0416V33C56.875 42.3341 50.6953 49.7924 45.1168 54.6736C42.2706 57.164 39.4373 59.1106 37.3208 60.4334C36.2598 61.0965 35.3717 61.6074 34.7427 61.9556C34.428 62.1298 34.1776 62.2636 34.0023 62.3556C33.9146 62.4017 33.8456 62.4373 33.7966 62.4624L33.7384 62.492L33.7209 62.5009L33.715 62.5038C33.715 62.5038 33.7112 62.5057 32.5 60.0833C31.2888 62.5057 31.2871 62.5049 31.2871 62.5049L31.2791 62.5009L31.2616 62.492L31.2034 62.4624C31.1544 62.4373 31.0854 62.4017 30.9977 62.3556C30.8224 62.2636 30.572 62.1298 30.2573 61.9556C29.6283 61.6074 28.7402 61.0965 27.6792 60.4334C25.5627 59.1106 22.7294 57.164 19.8832 54.6736C14.3047 49.7924 8.125 42.3341 8.125 33V14.0416C8.125 12.9127 8.8253 11.9022 9.88237 11.5058L31.549 3.38075ZM32.5 60.0833L31.2871 62.5049C32.0496 62.8861 32.9487 62.887 33.7112 62.5057L32.5 60.0833ZM32.5 57.0033C33.019 56.7091 33.6827 56.3196 34.45 55.84C36.3961 54.6238 38.9794 52.8464 41.5499 50.5972C46.8047 45.9992 51.4583 39.9159 51.4583 33V15.9185L32.5 8.80915L13.5417 15.9185V33C13.5417 39.9159 18.1953 45.9992 23.4501 50.5972C26.0206 52.8464 28.6039 54.6238 30.55 55.84C31.3173 56.3196 31.981 56.7091 32.5 57.0033Z"
        fill="#E2F895" />
    <path fill-rule="evenodd" clip-rule="evenodd"
        d="M32.5 19.4583C33.9958 19.4583 35.2083 20.6709 35.2083 22.1666V33C35.2083 34.4958 33.9958 35.7083 32.5 35.7083C31.0042 35.7083 29.7917 34.4958 29.7917 33V22.1666C29.7917 20.6709 31.0042 19.4583 32.5 19.4583Z"
        fill="#E2F895" />
    <path fill-rule="evenodd" clip-rule="evenodd"
        d="M29.7917 43.8333C29.7917 42.3375 31.0042 41.125 32.5 41.125H32.5271C34.0229 41.125 35.2354 42.3375 35.2354 43.8333C35.2354 45.3291 34.0229 46.5416 32.5271 46.5416H32.5C31.0042 46.5416 29.7917 45.3291 29.7917 43.8333Z"
        fill="#E2F895" />
</svg>