  <svg
    width="329"
    height="220"
    viewBox="0 0 329 220"
    fill="none"
    xmlns="http://www.w3.org/2000/svg"
  >
    <path
      d="M179.009 2.93172C142.72 3.76481 108.879 19.0594 85.4723 37.5782C61.8441 56.4341 48.6575 78.5142 48.5814 100.677C48.5053 123.056 61.0517 143.018 78.936 162.186C97.0106 181.01 120.417 199.039 146.549 209.596C197.191 232.096 251.523 204.159 273.579 135.05C295.679 66.3549 253.469 -0.852173 179.009 2.93172Z"
      fill="#EAF4FE"
    />
    <path
      d="M240.891 149.537H221.479L213.579 141.607L214.537 140.646L222.043 148.176H240.891V149.537Z"
      fill="#28008C"
    />
    <path
      d="M217.523 80.0404L216.559 79.0865L233.404 61.935H252.822V63.2896H233.974L217.523 80.0404Z"
      fill="#28008C"
    />
    <path
      d="M152.451 44.8916L136 28.1471H117.152V26.7861H136.57L153.415 43.9377L152.451 44.8916Z"
      fill="#28008C"
    />
    <path
      d="M115.694 156.265H96.2815V154.904H115.13L122.636 147.381L123.593 148.341L115.694 156.265Z"
      fill="#28008C"
    />
    <path
      d="M145.744 55.1113C150.841 53.4515 156.281 52.5421 161.923 52.5421V41.6483C154.943 41.6483 149.035 42.5895 142.397 44.7517C142.219 44.8089 142.054 44.8789 141.871 44.9361C142.042 44.8789 142.213 44.8153 142.39 44.758L145.744 55.1113Z"
      fill="#0561FC"
    />
    <path
      d="M104.954 132.589C114.432 152.685 133.128 165.932 155.311 168.138C133.077 165.817 114.261 151.934 104.954 132.589Z"
      fill="#EAF4FE"
    />
    <path
      d="M210.708 64.7141C211.519 65.7062 212.299 66.7364 213.066 67.7921L204.279 74.1897C210.568 82.8577 214.289 93.5226 214.289 105.059H225.137C225.137 105.065 225.137 105.065 225.137 105.065C225.137 106.146 225.105 107.215 225.048 108.283C225.105 107.215 225.143 106.14 225.143 105.059C225.149 89.7323 219.729 75.6779 210.708 64.7141Z"
      fill="#9AC7F7"
    />
    <path
      d="M161.93 157.594C133.008 157.594 109.57 134.077 109.57 105.065C109.57 81.7257 124.753 61.9477 145.751 55.1049L142.403 44.7581C142.226 44.8153 142.054 44.8789 141.883 44.9361C141.104 45.1969 140.336 45.464 139.576 45.7501C139.354 45.8328 139.138 45.9218 138.923 46.0045C115.149 55.2194 99.7368 76.8289 98.7604 102.47C98.7414 103.068 98.7351 103.672 98.7287 104.27C98.7287 104.537 98.7161 104.798 98.7161 105.065C98.7161 105.116 98.7224 105.167 98.7224 105.218C98.7224 106.07 98.7541 106.916 98.7858 107.755C98.7921 108.009 98.7985 108.258 98.8112 108.512C98.8429 109.173 98.9062 109.828 98.957 110.49C98.995 110.948 99.033 111.405 99.0774 111.863C99.1155 112.226 99.1662 112.595 99.2169 112.957C99.312 113.714 99.4071 114.471 99.5275 115.221C99.5339 115.266 99.5402 115.304 99.5529 115.348C100.428 120.741 101.987 125.905 104.13 130.751C104.39 131.355 104.65 131.953 104.935 132.544C104.942 132.563 104.954 132.576 104.954 132.589C114.261 151.941 133.077 165.817 155.311 168.138C155.438 168.151 155.564 168.164 155.691 168.177C156.433 168.247 157.187 168.297 157.942 168.348C158.322 168.374 158.709 168.393 159.089 168.412C159.59 168.437 160.104 168.444 160.611 168.45C161.055 168.456 161.492 168.482 161.93 168.482C175.82 168.482 188.652 163.979 199.087 156.361L192.703 147.559C184.062 153.868 173.436 157.594 161.93 157.594Z"
      fill="#7EB3FF"
    />
    <path
      d="M161.929 52.542C179.345 52.542 194.763 61.0765 204.285 74.1961L213.072 67.7984C212.305 66.7428 211.519 65.7189 210.714 64.7205C199.245 50.5706 183.535 42.6276 165.34 41.75C164.218 41.6864 163.083 41.6546 161.948 41.6546H161.942L161.929 52.542Z"
      fill="#28008C"
    />
    <path
      d="M225.143 105.065H214.296V105.071C214.296 115.991 210.974 126.128 205.281 134.529C201.87 139.565 197.61 143.979 192.703 147.565L199.087 156.367C199.093 156.367 199.093 156.361 199.099 156.354C200.088 155.636 201.065 154.892 202.009 154.109C215.386 143.247 223.228 128.582 224.82 111.596C224.832 111.482 224.839 111.361 224.851 111.246C224.928 110.375 225.004 109.504 225.048 108.626C225.054 108.582 225.048 108.531 225.054 108.486C225.054 108.423 225.054 108.359 225.061 108.296C225.111 107.227 225.149 106.159 225.149 105.078C225.143 105.071 225.143 105.065 225.143 105.065Z"
      fill="#C5E1F9"
    />
    <path
      d="M221.979 157.76H254.864"
      stroke="#C5E1F9"
      strokeWidth="4.2735"
      strokeMiterlimit="10"
    />
    <path
      d="M268.481 165.804H221.979V167.165H268.481V165.804Z"
      fill="#28008C"
    />
    <path d="M268.481 171.789H221.979V173.15H268.481V171.789Z" fill="#28008C" />
    <path d="M250.8 177.767H221.979V179.128H250.8V177.767Z" fill="#28008C" />
    <path
      d="M233.905 74.7557H266.795"
      stroke="#9AC7F7"
      strokeWidth="4.2735"
      strokeMiterlimit="10"
    />
    <path
      d="M280.406 82.8005H233.905V84.1614H280.406V82.8005Z"
      fill="#28008C"
    />
    <path
      d="M280.406 88.7848H233.905V90.1457H280.406V88.7848Z"
      fill="#28008C"
    />
    <path
      d="M262.725 94.7627H233.905V96.1236H262.725V94.7627Z"
      fill="#28008C"
    />
    <path
      d="M105.772 26.2901H72.8879V29.0056H105.772V26.2901Z"
      fill="#28008C"
    />
    <path
      d="M119.384 35.6894H72.8879V37.0504H119.384V35.6894Z"
      fill="#28008C"
    />
    <path
      d="M119.384 41.6737H72.8879V43.0346H119.384V41.6737Z"
      fill="#28008C"
    />
    <path d="M101.708 47.658H72.8879V49.0189H101.708V47.658Z" fill="#28008C" />
    <path
      d="M94.7854 168.978H127.676"
      stroke="#B7D1FE"
      strokeWidth="4.2735"
      strokeMiterlimit="10"
    />
    <path
      d="M141.281 177.023H94.7854V178.384H141.281V177.023Z"
      fill="#28008C"
    />
    <path d="M141.281 183H94.7854V184.361H141.281V183Z" fill="#28008C" />
    <path
      d="M123.606 188.985H94.7854V190.346H123.606V188.985Z"
      fill="#28008C"
    />
    <path
      d="M195.238 107.768V98.3303L189.628 97.1284C189.342 95.971 188.994 94.839 188.582 93.7324L192.798 89.9167L188.094 81.7448L182.28 83.6336C181.538 82.845 180.765 82.0946 179.941 81.395L181.779 75.6906L173.633 70.9718L169.493 75.5697C168.485 75.2518 167.458 74.9847 166.405 74.7748L165.15 68.8923H155.742L154.487 74.7748C153.371 74.9974 152.287 75.2899 151.222 75.6397L147.354 71.347L139.208 76.0658L140.926 81.4077C139.975 82.2281 139.081 83.1121 138.232 84.0469L133.166 82.4062L128.462 90.5781L132.215 93.9741C131.727 95.3159 131.302 96.6832 131.004 98.1014L126.395 99.0871V108.525L130.808 109.472C131.08 111.062 131.467 112.607 131.974 114.102L128.842 116.945L133.546 125.116L137.458 123.851C138.555 125.155 139.759 126.363 141.059 127.463L139.861 131.177L148.007 135.902L150.689 132.926C152.299 133.479 153.96 133.886 155.685 134.166L156.496 137.982H165.904L166.773 133.899C168.409 133.549 169.994 133.053 171.515 132.443L174.292 135.521L182.439 130.802L181.012 126.388C182.115 125.352 183.142 124.239 184.08 123.05L188.474 124.474L193.184 116.302L189.342 112.817C189.717 111.539 189.989 110.216 190.186 108.874L195.238 107.768ZM173.328 104.372C173.328 111.514 167.553 117.307 160.433 117.307C153.307 117.307 147.532 111.514 147.532 104.372C147.532 97.2238 153.307 91.4239 160.433 91.4239C167.559 91.4303 173.328 97.2238 173.328 104.372Z"
      fill="#FEC12F"
    />
    <path
      d="M160.433 84.3649C149.415 84.3649 140.482 93.319 140.482 104.378C140.482 115.425 149.415 124.379 160.433 124.379C171.445 124.379 180.372 115.418 180.372 104.378C180.372 93.319 171.445 84.3649 160.433 84.3649ZM160.433 120.226C151.704 120.226 144.628 113.129 144.628 104.372C144.628 95.6148 151.704 88.5112 160.433 88.5112C169.163 88.5112 176.238 95.6148 176.238 104.372C176.238 113.129 169.157 120.226 160.433 120.226Z"
      fill="#FFAB01"
    />
  </svg>