<svg width="482" height="104" viewBox="0 0 482 104" fill="none" xmlns="http://www.w3.org/2000/svg">
<path d="M57.7743 103.334C54.9277 103.334 52.2367 101.629 51.1064 98.8306C49.6293 95.1528 51.4114 90.9667 55.0892 89.4896C66.3857 84.9447 75.6609 78.9047 81.9161 72.0156C86.8258 66.6095 89.7083 60.8865 90.0372 55.9051C90.1986 53.4532 89.792 50.2 86.9275 48.5794C82.8909 46.3009 73.9865 47.0604 61.1172 56.0366C58.0314 58.1895 53.8154 57.5915 51.4413 54.6791C49.0672 51.7608 49.3483 47.5089 52.0752 44.9255C58.4261 38.9214 63.0548 33.3838 65.8295 28.4622C67.7551 25.0475 68.7538 21.9677 68.706 19.5577C68.6701 17.8235 68.102 16.466 67.0136 15.5151C64.9564 13.7211 60.5311 14.062 57.5411 16.2447C54.2998 18.6069 51.8061 22.7631 49.9223 28.9406C46.1549 41.2716 36.473 72.9664 36.473 72.9664C35.5102 76.106 32.5799 78.3545 29.2968 78.1931C26.0376 78.0376 23.3346 75.8608 22.6529 72.6794C22.324 71.6448 19.1246 62.4533 1.68646 34.4842C-0.41257 31.1173 0.616016 26.692 3.98284 24.593C7.34966 22.494 11.775 23.5225 13.874 26.8894C20.2429 37.1094 24.8416 45.0092 28.1486 51.0611C31.0191 41.6723 34.3261 30.8482 36.1859 24.7545C39.0145 15.4912 43.2306 8.91902 49.0732 4.6492C52.8945 1.86843 57.6128 0.223887 62.3611 0.020562C67.7372 -0.206684 72.7426 1.4558 76.4622 4.70302C80.6065 8.32101 82.9567 13.4998 83.0703 19.2826C83.16 23.6601 81.9759 28.3485 79.554 33.2522C84.984 32.8157 89.9116 33.7725 93.996 36.0749C101.088 40.0756 104.97 47.8438 104.378 56.8499C103.839 65.0547 99.6413 73.8694 92.5548 81.6675C84.8524 90.1534 73.7532 97.4611 60.4594 102.807C59.5803 103.16 58.6713 103.328 57.7803 103.328L57.7743 103.334Z" fill="#B1F16C"/>
<g clip-path="url(#clip0_1_325)">
<path d="M187.817 36.0048C181.141 36.0048 175.653 38.2672 171.356 42.799C167.059 47.3274 164.912 52.9869 164.912 59.7811C164.912 66.5754 167.059 72.5536 171.356 77.0224C175.653 81.4947 181.166 83.7291 187.901 83.7291C193.126 83.7291 197.696 82.2932 201.615 79.4179C205.534 76.5426 208.161 72.7848 209.495 68.1409H197.041C196.344 69.7659 195.199 71.0021 193.602 71.8427C192.005 72.6867 190.219 73.107 188.247 73.107C185.113 73.107 182.588 72.2804 180.672 70.6239C178.756 68.9709 177.594 66.5754 177.187 63.4409H210.28L210.455 59.7846C210.455 52.9344 208.35 47.2608 204.14 42.7605C199.931 38.2637 194.488 36.0118 187.813 36.0118L187.817 36.0048ZM177.366 54.5524C177.888 51.8837 179.051 49.7789 180.851 48.2379C182.651 46.7005 184.945 45.93 187.729 45.93C190.513 45.93 192.895 46.7145 194.695 48.28C196.495 49.8489 197.626 51.9362 198.092 54.5489H177.366V54.5524Z" fill="white"/>
<path d="M287.706 36.0048C281.031 36.0048 275.543 38.2672 271.246 42.799C266.948 47.3274 264.802 52.9869 264.802 59.7811C264.802 66.5754 266.948 72.5536 271.246 77.0224C275.543 81.4947 281.055 83.7291 287.79 83.7291C293.015 83.7291 297.585 82.2932 301.504 79.4179C305.423 76.5426 308.05 72.7848 309.384 68.1409H296.931C296.234 69.7659 295.088 71.0021 293.491 71.8427C291.894 72.6867 290.108 73.107 288.137 73.107C285.002 73.107 282.477 72.2804 280.561 70.6239C278.646 68.9709 277.483 66.5754 277.077 63.4409H310.169L310.344 59.7846C310.344 52.9344 308.239 47.2608 304.029 42.7605C299.82 38.2637 294.377 36.0118 287.702 36.0118L287.706 36.0048ZM277.255 54.5524C277.777 51.8837 278.94 49.7789 280.74 48.2379C282.54 46.7005 284.834 45.93 287.618 45.93C290.402 45.93 292.784 46.7145 294.584 48.28C296.384 49.8489 297.515 51.9362 297.981 54.5489H277.255V54.5524Z" fill="white"/>
<path d="M385.623 36.0048C378.948 36.0048 373.46 38.2672 369.163 42.799C364.866 47.3274 362.719 52.9869 362.719 59.7811C362.719 66.5754 364.866 72.5536 369.163 77.0224C373.46 81.4947 378.973 83.7291 385.707 83.7291C390.933 83.7291 395.503 82.2932 399.422 79.4179C403.341 76.5426 405.968 72.7848 407.302 68.1409H394.848C394.151 69.7659 393.006 71.0021 391.409 71.8427C389.812 72.6867 388.026 73.107 386.054 73.107C382.92 73.107 380.395 72.2804 378.479 70.6239C376.563 68.9709 375.401 66.5754 374.994 63.4409H408.086L408.262 59.7846C408.262 52.9344 406.157 47.2608 401.947 42.7605C397.737 38.2637 392.295 36.0118 385.62 36.0118L385.623 36.0048ZM375.173 54.5524C375.695 51.8837 376.857 49.7789 378.658 48.2379C380.458 46.7005 382.752 45.93 385.536 45.93C388.32 45.93 390.702 46.7145 392.502 48.28C394.302 49.8489 395.433 51.9362 395.899 54.5489H375.173V54.5524Z" fill="white"/>
<path d="M160.3 20.3325L143.885 67.2093L127.554 20.3325H113.623L136.089 83.0322H151.068L173.534 20.3325H160.3Z" fill="white"/>
<path d="M254.092 51.1588C253.136 50.6544 252.138 50.2447 251.104 49.9225C251.756 49.7054 252.39 49.4497 253.003 49.1555C255.44 47.9963 257.384 46.3117 258.837 44.1054C260.287 41.899 261.016 39.2583 261.016 36.1799C261.016 31.3049 259.303 27.442 255.878 24.5982C252.453 21.7544 247.952 20.3325 242.38 20.3325H213.207V83.0322H243.512C247.399 83.0322 250.782 82.3352 253.658 80.9414C256.533 79.5475 258.767 77.5617 260.364 74.9771C261.961 72.396 262.76 69.3911 262.76 65.9625C262.76 62.5339 261.975 59.5605 260.41 57.0354C258.841 54.5104 256.736 52.5491 254.095 51.1588H254.092ZM239.505 29.911C242.174 29.911 244.191 30.5624 245.557 31.8687C246.919 33.175 247.602 35.1047 247.602 37.6613C247.602 40.2179 246.891 42.1476 245.469 43.454C244.048 44.7603 241.971 45.4117 239.243 45.4117H226.617V29.911H239.505ZM246.951 71.0582C245.469 72.6552 243.277 73.4537 240.377 73.4537H226.617V54.9937H239.939C242.902 54.9937 245.179 55.8377 246.776 57.5187C248.373 59.2033 249.171 61.4972 249.171 64.397C249.171 67.2968 248.432 69.4612 246.951 71.0582Z" fill="white"/>
<path d="M360.04 72.8198C357.732 72.8198 356.03 72.319 354.934 71.3139C353.838 70.3088 353.291 68.8028 353.291 66.7925V47.2889H361.721V37.1816H353.291V25.6769L340.312 25.915V37.1816H330.671V25.6769L317.692 25.915V37.1816H310.218V47.2889H317.692V66.3513C317.692 72.0844 319.061 76.3535 321.803 79.1623C324.542 81.971 328.741 83.3719 334.393 83.3719C336.068 83.3719 337.58 83.2528 338.936 83.0182C339.258 82.9622 339.563 82.8991 339.85 82.8326V72.5536C339.85 72.5536 339.846 72.5536 339.843 72.5536C339.093 72.7323 338.284 72.8198 337.419 72.8198C335.111 72.8198 333.409 72.319 332.313 71.3139C331.217 70.3088 330.671 68.8028 330.671 66.7925V47.2889H340.312V66.3513C340.312 72.0844 341.682 76.3535 344.424 79.1623C347.162 81.971 351.362 83.3719 357.014 83.3719C358.688 83.3719 360.201 83.2528 361.556 83.0182C361.879 82.9622 362.183 82.8991 362.471 82.8326V72.5536C362.471 72.5536 362.467 72.5536 362.464 72.5536C361.714 72.7323 360.905 72.8198 360.04 72.8198Z" fill="white"/>
<path d="M437.046 36.9189C433.575 36.9189 430.273 37.7138 427.58 40.0253C425.632 41.6958 424.683 43.5835 423.979 45.7093V37.8084H411.259V83.0216H424.239V59.4414C424.239 55.7781 425.219 53.19 427.18 51.6841C429.142 50.1781 432.199 49.4217 436.353 49.4217C437.102 49.4217 437.736 49.4357 438.258 49.4672C438.776 49.4987 439.179 49.5723 439.47 49.6878V37.2761C438.951 37.0414 438.142 36.9224 437.046 36.9224V36.9189Z" fill="white"/>
<path d="M449.769 49.5933H445.266V37.0555H449.769C451.853 37.0555 453.475 37.6333 454.634 38.7856C455.793 39.9413 456.375 41.4507 456.375 43.3244C456.375 45.1981 455.793 46.7075 454.634 47.8632C453.475 49.019 451.853 49.5933 449.769 49.5933ZM452.676 46.1962C453.331 45.5063 453.657 44.5502 453.657 43.3279C453.657 42.1056 453.331 41.146 452.676 40.4596C452.021 39.7697 451.03 39.4265 449.699 39.4265H447.847V47.2328H449.699C451.03 47.2328 452.021 46.8896 452.676 46.1997V46.1962Z" fill="white"/>
<path d="M459.397 49.5933H456.697L461.411 37.0555H464.132L468.846 49.5933H466.072L465.312 47.4395H460.157L459.397 49.5933ZM462.752 40.2355H462.717L460.987 45.128H464.482L462.752 40.2355Z" fill="white"/>
<path d="M480.358 38.6454C481.583 39.8817 482.193 41.4402 482.193 43.3244C482.193 45.2085 481.58 46.767 480.358 48.0033C479.132 49.2396 477.573 49.8559 475.679 49.8559C473.784 49.8559 472.222 49.2361 471 48.0033C469.774 46.767 469.165 45.2085 469.165 43.3244C469.165 41.4402 469.778 39.8817 471 38.6454C472.226 37.4092 473.784 36.7928 475.679 36.7928C477.573 36.7928 479.135 37.4127 480.358 38.6454ZM478.417 46.2837C479.125 45.5377 479.479 44.5501 479.479 43.3244C479.479 42.0986 479.125 41.1145 478.417 40.365C477.71 39.6191 476.799 39.2443 475.679 39.2443C474.558 39.2443 473.647 39.6191 472.94 40.365C472.233 41.1145 471.879 42.0986 471.879 43.3244C471.879 44.5501 472.233 45.5342 472.94 46.2837C473.647 47.0297 474.558 47.4044 475.679 47.4044C476.799 47.4044 477.71 47.0297 478.417 46.2837Z" fill="white"/>
</g>
<defs>
<clipPath id="clip0_1_325">
<rect width="368.377" height="63.3896" fill="white" transform="translate(113.623 20.3325)"/>
</clipPath>
</defs>
</svg>
