<svg width="221" height="200" viewBox="0 0 221 200" fill="none" xmlns="http://www.w3.org/2000/svg"><path opacity=".8" d="M63.73 48.727c53.575-20.123 130.19-83.34 149.631-23.8 10.506 27.568 8.555 74.452 1.288 105.919-7.876 33.117-21.075 50.825-47.187 58.112-51.769 13.118-145.977 26.534-162.131-35.939-9.205-29.998-4.672-58.809 5.198-73.66 10.464-16.36 26.265-18.741 53.201-30.631Z" fill="#E6F0FA"/><path d="M168.443 148.207h-26.86v9.523h26.86v-9.523Z" fill="#FFAB01"/><path d="M151.134 74.313h-9.551v103.953h9.551V74.313Z" fill="#FFAB01"/><path d="M161.882 152.96h-18.355v20.833h18.355V152.96ZM118.605 49.015v20.833c0 4.603 3.744 8.33 8.361 8.33h38.799c4.616 0 8.36-3.734 8.36-8.33V49.015c0-4.603-3.744-8.33-8.36-8.33h-38.799c-4.617 0-8.361 3.727-8.361 8.33Zm45.969 1.194v18.445h-36.418V50.21h36.418Z" fill="#FFAB01"/><path d="M170.534 71.032c0 3.285-2.679 5.955-5.966 5.955h-38.799c-3.288 0-5.973-2.677-5.973-5.955V50.205c0-3.278 2.685-5.948 5.973-5.948h38.799c3.287 0 5.966 2.67 5.966 5.948v20.827Zm-4.776 1.194V49.018h-41.18v23.208h41.18Z" fill="#FEC12F"/><path d="M168.443 164.278h-26.86v9.523h26.86v-9.523Z" fill="#FFAB01"/><path d="M168.444 169.033h-17.309v4.762h17.309v-4.762Zm0-16.073h-17.309v4.762h17.309v-4.762Zm-22.086-78.647h-4.775v103.953h4.775V74.313Z" fill="#FEC12F"/><path d="m70.851 118.306-9.066-9.034M47.77 95.297l-9.06-9.04m0 32.049 9.06-9.034m14.015-13.975 9.066-9.04m113.786 75.448-2.442-2.442m-3.78-3.766-2.442-2.442m0 8.65 2.442-2.442m3.78-3.766 2.442-2.442" stroke="#C5E1F9"/><path d="M71.73 69.172s6.194-5.245.928-13.25c-2.921-4.437-1.98-16.755 7.038-13.125 9.018 3.63 6.423-1.077 11.51.938 5.094 2.015 7.433 5.162 6.9 8.654-.533 3.492.173 10.117 3.301 11.324 3.129 1.208 18.161 8.04 9.025 17.238-9.135 9.206-43.955 3.306-38.702-11.786v.007Z" fill="#212957"/><path d="M79.697 42.8c8.52 3.429 6.679-.58 10.741.669-.463.82-1.107 1.67-1.965 2.532-3.488 3.513-10.112 4.88-16.673 4.396-.145-5.024 1.488-10.179 7.897-7.598Z" fill="#3B4572"/><path d="m101.961 132.647 21.545 42.564s-.679.704-8.264-7.301c-7.98-8.426-15.911-16.541-18.541-20.661-2.63-4.12-3.378-15.727-2.25-16.099 1.129-.373 7.51 1.497 7.51 1.497Z" fill="#F7B68B"/><path d="m76.804 69.927 2.263 30.626 11.44-2.353s7.89-15.61 7.89-18.536c0-.559-.94-14.23-1.688-14.602-2.104-1.049-4.319-.559-4.693-.559-6.762 0-9.765 1.311-9.765 1.311l-5.447 4.12v-.007Z" fill="#0561FC"/><path d="m81.31 133.77 2.63 39.321s-9.766-13.484-11.642-21.717c-1.876-8.239-2.25-21.724-.374-22.469 1.876-.745 9.392 4.865 9.392 4.865h-.007Z" fill="#F7B68B"/><path d="M71.918 128.905c1.875-.745 9.391 4.865 9.391 4.865l.554 8.309c-2.61-.118-5.218-.483-7.696-1.194-1.405-.407-2.526-1.07-3.419-1.925-.228-5.238.118-9.641 1.17-10.055Zm22.506 10.829c-.643-4.209-.637-8.363.028-8.584 1.128-.373 7.509 1.497 7.509 1.497l2.063 4.196c-.859.331-4.568 1.732-9.607 2.891h.007Z" fill="#EC9568"/><path d="m91.448 96.699 12.022 38.196s-18.403 7.487-32.674 3.367c-14.271-4.119 0-34.455 0-34.455s4.132-9.737 7.136-10.862c3.003-1.125 13.523 3.747 13.523 3.747l-.007.007Zm5.26-31.645 8.077 19.287s4.88 5.059-2.249 8.799c-2 1.049-7.89-11.987-7.89-11.987l2.062-16.106v.007Zm-12.873.241L72.527 84.113s4.457 3.41 2.955 5.659c-.575.856-4.132.186-4.132.186s-1.696 1.588-5.696-4.602C64.429 83.458 73.786 68.8 73.786 68.8l10.043-3.506h.006Z" fill="#0561FC"/><path d="m71.19 100.775 1.135 2.235s.443-1 .035-1.801c-.346-.696-.782-1.538-.782-1.538l-.38 1.111-.007-.007Zm.949-2.321.339 1.594 1.543.717s.353-.345-.664-1.31c-.229-.221-.533-1.987-.533-1.987l-.685.98v.006Z" fill="#F7B68B"/><path d="M75.136 92.216s-2.374 2.318-4.014 5.624c-1.64 3.298-.741 3.685-.637 4.817.097 1.131.083 2.732.65 1.518.568-1.208.277-3.423.54-4.072.263-.641 1.108-1.318 1.786-2.09.671-.773 1.066-1.395.872-.387-.2 1.007-.27 1.339-.208 1.697.062.36.11.925.602.953.485.021.319-.773.388-1.111.07-.331 1.059-1.884 1.218-2.27.16-.387.035-1.802.048-2.706.007-.441-.145-1.511-.408-2.484-.27-1-.152-.276-.83.504l-.007.007Zm28.521-6.564s12.07-3.623 13.89-3.74c1.821-.118 5.24-1.656 2.125 1.78-3.114 3.437-14.153 7.301-16.762 8.516-2.623 1.214-2.443-4.493.747-6.556Zm-18.89-28.587c-.61-3.637-2.88 1.104-2.88 1.104s1.675 4.624.692 8.198c.506.242 5.731 5.797 7.683.255-3.01-3.284-5.094-7.17-5.495-9.557Z" fill="#F7B68B"/><path d="M82.704 61.537a6.623 6.623 0 0 0 2.796 1.621 6.491 6.491 0 0 0 2.201.228c-1.599-2.36-2.658-4.686-2.934-6.321-.61-3.637-2.88 1.104-2.88 1.104s.52 1.456.81 3.36l.007.008Z" fill="#EC9568"/><path d="M86.166 49.002s3.06 3.899 3.454 6.431c.394 2.533 1.03 5.763-1.495 6.246-2.014.38-4.582-2.312-6.008-3.389-1.384-1.048 1.038-3.36-2.138-7.328-1.15-1.436 5.156-.193 6.187-1.96Zm-11.542 39.35 1.28 3.264-1.785 2.712s-3.336-3.236-4.658-7.108c1.273-.504 3.267-.082 5.163 1.132Zm.201 88.591 10.001-1.732-.941-4.307s-1.315-1.007-1.599-.283c-1.218 3.182-10.79 5.445-7.46 6.322Z" fill="#F7B68B"/><path d="M76.52 174.756c.124.028.512 1.863 7.931-1.787l.56 2.153s-7.792 3.14-11.91 1.677c-1.481-.525 1.536-1.16 3.425-2.036l-.007-.007Z" fill="#212957"/><path d="M119.243 171.618c.263.428.042 2.008.042 2.008s8.921 6.273 11.682 5.818c1.17-.193.146-1.166-2.104-2.774-2.173-1.553-5.986-4.279-7.225-5.666-1.239-1.387-5.447-4.306-2.388.614h-.007Z" fill="#F7B68B"/><path d="M128.676 176.482c.284 2.401-6.471-.946-9.481-3.982 0 0-.872 2.374-.25 2.533 5.42 1.4 7.434 5.244 12.022 4.402 1.004-.186.478-1.235-2.291-2.953Z" fill="#212957"/><path d="M116.521 84.563c3.26-3.623 2.997-6.638 3.772-8.53.776-1.89 1.281-4.03 1.288-4.009.692 2.064-.319 3.264-.388 4.258-.062.994-.159.635 1.087-.573.706-.69.685-3.022.865-4.533.159-1.305.56-1.85.56-1.85s.353 1.995.243 4.044c-.139 2.47-.762 5.114-.997 5.672-.415 1.015-2.519 3.506-4.277 5.045-1.993 1.739-4.506 3.085-2.159.476h.006Z" fill="#F7B68B"/><path d="M122.723 79.172s1.847-3.34 1.944-4.12c.076-.545-.014-3.167-.014-3.167s-.782 1.173-.802 2.229c-.028 1.055-1.135 5.058-1.135 5.058h.007Z" fill="#F7B68B"/></svg>